<svg xmlns="http://www.w3.org/2000/svg" width="79" height="26" fill="none">
  <g clip-path="url(#a)">
    <path fill="#002E47" d="M74.373 1.082H10.402c-2.132 0-3.928 1.62-4.096 3.681L1.48 6.55a1.358 1.358 0 0 0-.814 1.73c.14.385.449.688.842.798l4.77 1.566v11.016c0 2.225 1.851 4.038 4.124 4.038h63.971c2.273 0 4.125-1.813 4.125-4.038V5.12c0-2.225-1.852-4.038-4.125-4.038Z"/>
    <path fill="#002E47" d="M16.35 7.591a1.688 1.688 0 0 1 1.488-.769c.196 0 .365.028.561.055.14.027.309.082.449.165.14.055.252.137.365.22.084.082.196.164.28.247.14-.11.253-.247.337-.385a.599.599 0 0 0 .168-.412c0-.082-.028-.165-.056-.247-.056-.082-.112-.137-.168-.192-.084-.055-.169-.138-.253-.193-.14-.082-.28-.165-.42-.22a2.367 2.367 0 0 0-.59-.164 3.553 3.553 0 0 0-.757-.083c-.505 0-1.01.083-1.46.275a2.83 2.83 0 0 0-1.037.77c-.281.329-.505.741-.618 1.153a4.25 4.25 0 0 0-.196 1.456c0 .495.056.99.196 1.456.113.412.309.797.59 1.154.28.33.645.577 1.038.742.477.192.982.274 1.487.274.252 0 .533-.027.785-.054.197-.055.393-.11.59-.193.14-.055.28-.11.392-.192.084-.055.14-.11.225-.165.056-.055.112-.137.168-.22.028-.082.056-.137.056-.22 0-.082-.028-.137-.056-.22-.028-.082-.084-.137-.112-.219-.056-.082-.112-.137-.168-.22l-.14-.192c-.057.055-.141.11-.253.192-.113.083-.225.165-.337.22-.14.082-.28.137-.42.192a1.847 1.847 0 0 1-.562.083c-.337 0-.645-.055-.954-.22a1.956 1.956 0 0 1-.617-.55 2.206 2.206 0 0 1-.337-.796 5.258 5.258 0 0 1-.084-.934c0-.302.028-.605.084-.907.056-.192.168-.44.337-.687Z"/>
    <path fill="#002E47" d="M17.642 13.39c-.533 0-1.066-.11-1.571-.302a2.965 2.965 0 0 1-1.207-.88 3.348 3.348 0 0 1-.701-1.318c-.14-.522-.225-1.044-.197-1.593 0-.522.056-1.072.225-1.594.14-.494.393-.934.701-1.318a3.395 3.395 0 0 1 1.207-.88 3.848 3.848 0 0 1 1.655-.302c.28 0 .561.028.842.083.224.055.449.11.673.192.169.055.337.137.505.247.113.055.197.138.309.22.112.11.196.192.252.302.085.138.14.303.14.467 0 .248-.112.495-.252.687a5.53 5.53 0 0 1-.393.44.457.457 0 0 1-.645-.028c-.084-.082-.168-.165-.252-.22a.585.585 0 0 0-.281-.164c-.112-.055-.225-.11-.365-.138-.14-.027-.28-.055-.449-.055a1.255 1.255 0 0 0-1.122.55 2.49 2.49 0 0 0-.253.632 4.11 4.11 0 0 0-.084.824c0 .275.028.577.084.851.057.22.14.44.253.632.112.165.28.303.449.412.196.11.449.165.701.165.169 0 .309-.027.421-.055.112-.027.225-.082.337-.137.084-.055.196-.11.252-.165.085-.082.169-.137.225-.192.084-.083.224-.11.337-.11.112 0 .224.082.308.165l.14.165c.057.082.14.164.197.247.056.11.112.192.14.275.056.11.084.247.112.384a.793.793 0 0 1-.112.44s0 .027-.028.027a.863.863 0 0 1-.252.302 1.958 1.958 0 0 1-.281.22c-.14.083-.309.165-.477.22-.196.082-.42.165-.645.192-.309.055-.59.083-.898.083.084.027.028.027 0 .027Zm.028-7.28c-.421 0-.814.082-1.207.247a2.208 2.208 0 0 0-.87.632 2.84 2.84 0 0 0-.532.99c-.14.439-.197.878-.197 1.345 0 .467.056.907.168 1.346.113.357.281.687.505.99.225.274.534.494.87.631.421.165.842.248 1.291.248.253 0 .477-.028.73-.055a1.4 1.4 0 0 0 .476-.165c.14-.055.225-.11.337-.165a.49.49 0 0 0 .14-.11l.085-.082v-.028c-.029-.055-.056-.11-.113-.192-.084.055-.196.11-.28.165-.169.082-.337.165-.505.22-.225.054-.45.11-.674.082-.392 0-.785-.083-1.15-.247a2.347 2.347 0 0 1-.786-.687c-.196-.302-.336-.605-.392-.962a4.181 4.181 0 0 1-.113-1.016c0-.33.028-.66.113-.99.056-.329.196-.631.364-.933a2.218 2.218 0 0 1 1.908-.99c.197 0 .45.028.674.083.168.055.364.11.533.192.14.083.28.165.392.248v-.028c.057-.055.057-.11.085-.165-.028-.055-.056-.082-.084-.11-.057-.054-.113-.082-.197-.137a.956.956 0 0 0-.337-.165l-.505-.165c-.196-.027-.42-.027-.645-.027h-.084ZM25.218 9.599c0-.275-.028-.577-.112-.852a1.358 1.358 0 0 0-.365-.604c-.197-.165-.421-.302-.645-.357a3.843 3.843 0 0 0-.983-.11c-.252 0-.533.027-.785.055-.224.027-.449.11-.674.165a1.432 1.432 0 0 0-.448.247c-.085.055-.14.165-.169.275 0 .11.056.22.084.33.057.137.14.274.225.384a3.26 3.26 0 0 1 .701-.33c.253-.11.533-.137.814-.137a1.03 1.03 0 0 1 .701.165.64.64 0 0 1 .225.577v.192h-.477l-.842.082c-.28.055-.589.138-.841.275-.253.11-.506.302-.674.522-.196.247-.28.55-.252.88 0 .246.056.494.14.713.084.193.224.357.393.495.168.11.336.192.533.247.196.055.393.083.589.083.309 0 .645-.055.954-.165.224-.11.449-.248.617-.412a.649.649 0 0 0 .253.412.86.86 0 0 0 .589.137c.112 0 .224 0 .337-.027.112-.028.252-.055.364-.11a2.298 2.298 0 0 1-.252-1.21V9.6Zm-1.375 1.813a.293.293 0 0 1-.084.192c-.056.083-.14.138-.225.193-.112.055-.196.11-.308.137a1.689 1.689 0 0 1-.393.055c-.224.027-.42-.055-.59-.22a.812.812 0 0 1-.168-.494c0-.165.029-.303.14-.44a.82.82 0 0 1 .337-.275.96.96 0 0 1 .477-.137c.169-.027.337-.055.533-.055h.281v1.044Z"/>
    <path fill="#002E47" d="M22.41 13.36h-.083c-.225 0-.45-.027-.702-.082a1.542 1.542 0 0 1-.673-.33 1.749 1.749 0 0 1-.533-.659 2.033 2.033 0 0 1-.197-.906c-.028-.412.112-.797.337-1.127.224-.274.477-.494.786-.632a.456.456 0 0 1-.365-.164 2.146 2.146 0 0 1-.309-.495 2.288 2.288 0 0 1-.14-.467v-.082a.865.865 0 0 1 .365-.605c.168-.11.336-.22.56-.302.253-.082.506-.165.758-.192.281-.055.59-.083.87-.083.365 0 .73.028 1.094.138.31.082.618.247.842.467.225.22.393.494.477.796.084.33.14.632.112.962v2.005c-.028.33.056.66.197.962.056.11.056.247.028.357-.056.11-.14.22-.253.247-.14.055-.28.11-.449.138-.14.027-.28.027-.42.027a1.298 1.298 0 0 1-.842-.22s-.028 0-.028-.027c-.028-.027-.084-.055-.112-.11-.085.055-.197.11-.31.137-.28.193-.645.248-1.01.248Zm-.168-3.131a.879.879 0 0 0-.364.165c-.197.11-.393.247-.505.412a1 1 0 0 0-.169.577v.027c0 .192.028.357.113.522.056.11.14.22.252.33a.877.877 0 0 0 .365.165c.14.055.308.055.449.055.168 0 .336 0 .477-.055a1.199 1.199 0 0 1-.926-.357l-.028-.028a1.296 1.296 0 0 1-.28-.77c0-.246.055-.494.224-.686a.984.984 0 0 1 .392-.357Zm2.189 2.17c.084.055.196.083.28.055h.113c-.084-.302-.113-.604-.084-.906V9.597c0-.247-.028-.494-.085-.714a1.093 1.093 0 0 0-.252-.412 1.178 1.178 0 0 0-.449-.248 2.955 2.955 0 0 0-.842-.11c-.252 0-.477.028-.73.055a2.367 2.367 0 0 0-.588.165.848.848 0 0 0-.31.165c0 .028.029.055.029.055.112-.055.224-.11.365-.165.308-.137.645-.192.982-.192a1.47 1.47 0 0 1 .954.247c.028.028.056.028.084.055.252.247.393.577.365.934v.165c0 .165-.085.275-.197.357.14.083.225.22.225.385v1.099c-.028.164-.085.33-.197.44v.027a.45.45 0 0 1 .309.357c-.028.055 0 .11.028.137Zm-1.824-.934c.056.055.112.055.197.055h.056c.084 0 .168 0 .252-.027.084-.028.14-.055.225-.083.028-.027.056-.027.084-.055v-.522c-.112 0-.197.028-.309.028-.112.027-.224.055-.336.11a.286.286 0 0 0-.169.137c-.028.027-.056.082-.028.137v.028c-.028.082-.028.137.028.192Zm.253-2.335c-.225 0-.421.027-.618.11-.112.055-.224.082-.336.137.168-.055.336-.11.505-.137.28-.055.533-.083.813-.083a1.028 1.028 0 0 0-.308-.054h-.056v.027ZM30.718 8.225a1.443 1.443 0 0 0-.645-.412 2.452 2.452 0 0 0-.758-.137c-.309 0-.645.055-.926.192a1.96 1.96 0 0 0-.533.412.533.533 0 0 0-.309-.384 1.538 1.538 0 0 0-.617-.11h-.196c-.056 0-.113 0-.14.027l-.14.028v7.197h1.458v-2.61a.217.217 0 0 0 .112.11c.084.055.14.138.253.165.112.055.252.11.393.138.168.055.364.082.533.055.252 0 .505-.055.757-.138.253-.082.477-.247.674-.44.224-.247.392-.521.505-.823.14-.44.196-.88.196-1.347a4.15 4.15 0 0 0-.168-1.181 3.487 3.487 0 0 0-.45-.742Zm-1.178 3.16a.85.85 0 0 1-.786.412 1.12 1.12 0 0 1-.505-.11c-.112-.055-.225-.11-.309-.192V9.268a.44.44 0 0 1 .168-.357.816.816 0 0 1 .618-.165c.168 0 .337.028.505.11.14.083.252.165.336.302.085.138.14.302.169.467.028.193.056.385.056.577.028.44-.056.824-.253 1.182Z"/>
    <path fill="#002E47" d="M27.908 15.45h-1.46a.439.439 0 0 1-.448-.44V7.813c0-.22.168-.413.393-.44l.14-.027c.056 0 .112-.028.197-.028h.224c.252 0 .533.055.786.165.084.027.14.082.224.137.084-.055.14-.082.225-.137a2.131 2.131 0 0 1 1.15-.247c.28 0 .59.055.87.164.308.11.589.303.813.55a2.4 2.4 0 0 1 .533.934c.14.44.197.88.197 1.319 0 .494-.056.989-.225 1.456-.112.384-.336.714-.589 1.016a2.22 2.22 0 0 1-.87.55c-.28.11-.589.137-.898.165a2.82 2.82 0 0 1-.673-.083c-.056-.027-.112-.027-.168-.055v1.758c.056.248-.169.44-.421.44Zm-.982-.88h.533v-2.142c0-.192.112-.357.309-.412.028 0 .028 0 .056-.028-.056-.055-.14-.082-.197-.137a.426.426 0 0 1-.168-.33V9.296c0-.22.084-.412.224-.577-.14-.055-.224-.165-.28-.33 0-.027-.028-.054-.056-.082a.913.913 0 0 0-.393-.082h-.028v6.346Zm1.403-2.362c.056.028.084.083.14.083.112.054.197.082.309.11.14.027.28.054.393.054.224 0 .42-.027.617-.11a1.01 1.01 0 0 0 .505-.33c.168-.192.308-.411.393-.659.112-.384.168-.796.168-1.18 0-.385-.028-.715-.14-1.072a2.57 2.57 0 0 0-.337-.605.998.998 0 0 0-.449-.302c-.196-.055-.393-.11-.59-.11-.252 0-.504.055-.7.165 0 0-.029 0-.029.028h.169c.252 0 .477.055.701.164.225.11.393.275.505.467.112.193.197.413.225.632.028.22.056.44.056.66.028.467-.084.961-.309 1.4v.028c-.252.412-.701.66-1.206.632-.14 0-.28-.027-.421-.055Zm.42-.851c.169 0 .31-.055.393-.193.14-.274.225-.604.197-.934v-.027c0-.165 0-.33-.056-.495a1.524 1.524 0 0 0-.113-.33.335.335 0 0 0-.14-.137c-.084-.027-.168-.055-.28-.055h-.056c-.085 0-.197 0-.281.055v2.006c.028 0 .028.027.056.027.056.083.168.083.28.083-.027 0-.027 0 0 0ZM35.207 11.466c-.028.027-.056.055-.112.082a.455.455 0 0 1-.197.11 1.01 1.01 0 0 1-.252.11 1.018 1.018 0 0 1-.28.055c-.394 0-.618-.247-.618-.742V8.856h1.487V7.812h-1.487V7.07a.986.986 0 0 0-.084-.412.653.653 0 0 0-.225-.247 1.048 1.048 0 0 0-.308-.137c-.112-.028-.225-.028-.337-.028h-.168c-.056 0-.112 0-.169.028l-.168.027v4.863c0 .165 0 .302.028.467 0 .137.056.302.084.44.084.274.28.494.505.659.309.192.674.274 1.038.247.225 0 .421-.028.618-.055.168-.028.336-.11.505-.192a.874.874 0 0 0 .308-.248.349.349 0 0 0 .113-.274.72.72 0 0 0-.084-.33.947.947 0 0 0-.197-.412Z"/>
    <path fill="#002E47" d="M33.883 13.391c-.421 0-.814-.11-1.15-.33-.337-.22-.59-.521-.702-.906a1.744 1.744 0 0 1-.112-.55c-.028-.164-.028-.357-.028-.521V6.248c0-.22.168-.412.392-.44l.169-.027c.056 0 .112-.027.196-.027h.197c.14 0 .28 0 .42.027.169.028.337.11.477.193.169.11.281.247.365.44.084.192.14.411.14.631v.275h1.039c.252 0 .448.192.448.44v1.098c0 .248-.196.44-.448.44h-1.038v1.786c0 .274.056.274.14.274.056 0 .084 0 .14-.027l.168-.083c.028-.027.085-.054.113-.082.028-.027.056-.055.084-.055a.54.54 0 0 1 .364-.137c.14 0 .253.082.337.192.112.137.197.302.28.44.085.164.141.33.141.521 0 .22-.084.44-.224.577a1.114 1.114 0 0 1-.45.33c-.196.11-.392.165-.617.22a3.122 3.122 0 0 1-.73.082c-.027.055-.083.055-.111.055Zm-1.123-6.73v4.45c0 .137 0 .275.029.385v.027c0 .11.027.22.084.33.056.165.196.33.336.44.225.137.477.192.758.164h.028c.168 0 .365-.027.533-.055.14-.027.253-.082.393-.137.056-.028.14-.083.168-.138v-.054c-.084.027-.168.082-.252.11-.14.054-.28.082-.421.082-.674 0-1.066-.44-1.066-1.181V8.858c0-.247.196-.44.448-.44h1.039v-.164h-1.039a.439.439 0 0 1-.448-.44v-.741c0-.083 0-.165-.056-.248 0-.027-.029-.055-.085-.082a.216.216 0 0 0-.14-.055c-.084 0-.168-.027-.253-.027h-.056ZM40.252 8.363a1.933 1.933 0 0 0-.674-.495 2.54 2.54 0 0 0-1.01-.192c-.308 0-.617.055-.898.137-.28.11-.56.247-.785.467-.253.22-.45.495-.561.797-.14.357-.225.742-.225 1.126-.028.467.056.907.225 1.346.14.33.364.605.617.852.252.22.56.357.87.44.336.082.645.137.982.137.336 0 .645-.027.953-.11.225-.055.45-.165.646-.275.168-.082.252-.247.28-.412a.807.807 0 0 0-.14-.412 3.582 3.582 0 0 0-.28-.412l-.225.192a1.006 1.006 0 0 1-.28.193c-.113.055-.253.11-.365.137-.14.028-.309.055-.477.055a1.234 1.234 0 0 1-1.01-.385 1.696 1.696 0 0 1-.365-.961h3.142c0-.055 0-.082.029-.137v-.522c0-.275-.029-.55-.113-.825a1.309 1.309 0 0 0-.336-.741Zm-2.694 1.4c-.028-.302.084-.576.253-.823a.966.966 0 0 1 .701-.303.817.817 0 0 1 .73.303c.14.247.224.549.196.824h-1.88Z"/>
    <path fill="#002E47" d="M38.883 13.416h-.056c-.365 0-.73-.055-1.094-.138a2.833 2.833 0 0 1-1.039-.522 2.707 2.707 0 0 1-.757-1.016 4.112 4.112 0 0 1-.28-1.511c0-.44.055-.88.252-1.291.14-.358.393-.687.673-.962.28-.247.59-.44.954-.55.337-.11.701-.164 1.038-.164.393 0 .814.055 1.179.22.336.137.617.357.841.604.225.247.365.577.477.879.085.302.14.632.14.934v.522c0 .083 0 .165-.027.22a.45.45 0 0 1-.45.384h-.14c.028 0 .028.028.028.055.113.138.225.303.337.467.112.165.168.358.197.577v.083a.992.992 0 0 1-.505.769 1.872 1.872 0 0 1-.758.33c-.309.055-.645.11-1.01.11Zm-.056-.907c.28 0 .56-.027.842-.11.168-.055.336-.11.505-.22.028 0 .028-.027.056-.027s.028-.028.028-.028a.208.208 0 0 0-.056-.137c-.056.027-.113.082-.197.11-.14.082-.309.137-.449.165a2.177 2.177 0 0 1-.589.082 1.838 1.838 0 0 1-1.375-.522l-.028-.027a2.172 2.172 0 0 1-.477-1.21c0-.109.028-.246.14-.329.029-.027.057-.055.113-.082-.14-.083-.253-.22-.253-.385-.028-.412.112-.797.365-1.126.28-.302.645-.467 1.038-.467.42-.028.842.165 1.094.494l.028.028c.197.33.28.687.253 1.071 0 .11-.056.22-.14.302h.533V9.9c0-.247-.028-.467-.113-.714-.056-.22-.168-.385-.28-.55a1.298 1.298 0 0 0-.505-.357 1.646 1.646 0 0 0-.814-.137c-.28 0-.533.055-.757.11-.225.082-.45.192-.618.357a1.744 1.744 0 0 0-.449.632c-.112.302-.196.632-.168.961 0 .412.056.824.197 1.182.112.247.28.494.505.659.196.165.42.275.673.357.308.083.59.11.898.11Zm-.533-1.291a.753.753 0 0 0 .617.22h.056c.112 0 .224 0 .337-.055.084-.028.196-.055.28-.11a.852.852 0 0 0 .197-.138l.196-.165h-1.824c.028.11.084.165.14.248Zm-.197-1.896h.814c-.028-.055-.028-.082-.056-.137-.056-.083-.168-.11-.28-.11h-.085a.47.47 0 0 0-.337.137c0 .055-.028.083-.056.11ZM45 7.786c-.084-.028-.196-.055-.28-.083-.084 0-.197-.027-.28-.027-.141 0-.281.027-.394.055a.957.957 0 0 0-.336.165.963.963 0 0 0-.253.22 1.527 1.527 0 0 0-.168.22c-.028-.166-.169-.33-.309-.413a1.534 1.534 0 0 0-.589-.137h-.196c-.056 0-.113 0-.14.027l-.14.028v5.11h1.458V9.543a.57.57 0 0 1 .224-.44.87.87 0 0 1 .562-.192c.14 0 .28.028.42.082.14.055.253.138.365.22.084-.165.169-.33.225-.494a1.17 1.17 0 0 0 .112-.522.437.437 0 0 0-.084-.247.375.375 0 0 0-.197-.165Z"/>
    <path fill="#002E47" d="M43.314 13.388h-1.459a.439.439 0 0 1-.449-.44V7.812c0-.22.169-.412.393-.44l.14-.027c.056 0 .14-.027.197-.027h.224c.28 0 .533.055.786.165.056.027.112.055.168.11.056-.028.084-.055.14-.11.14-.083.281-.138.421-.193.197-.054.365-.082.562-.082.112 0 .224 0 .336.027.14.028.28.055.421.11.14.083.252.165.337.303.112.137.168.33.168.522 0 .247-.056.467-.14.686-.056.165-.169.358-.253.55a.434.434 0 0 1-.308.22c-.14.027-.281 0-.393-.083l-.253-.165c-.056-.027-.14-.027-.224-.027H44.1a.459.459 0 0 0-.253.082c-.056.028-.056.083-.056.11v3.38a.487.487 0 0 1-.477.466Zm-.982-.906h.533v-2.94c0-.302.14-.604.365-.797h-.056c-.169-.027-.309-.164-.365-.357 0-.055-.028-.082-.084-.11a.88.88 0 0 0-.365-.082h-.028v4.286Zm1.796-4.039c.196 0 .393.028.561.11v-.027a.932.932 0 0 0 .084-.357c-.056-.028-.084-.028-.14-.028-.084 0-.14-.027-.225-.027-.084 0-.168 0-.252.027-.084.028-.169.055-.253.11a.74.74 0 0 0-.168.137c-.028.028-.056.083-.084.11.168-.027.308-.055.477-.055ZM49.152 7.786l-.252-.083c-.085 0-.197-.027-.281-.027-.14 0-.28.027-.393.055a.957.957 0 0 0-.337.165.963.963 0 0 0-.252.22 1.527 1.527 0 0 0-.168.22.577.577 0 0 0-.31-.413 1.424 1.424 0 0 0-.588-.137h-.197c-.056 0-.112 0-.14.027l-.14.028v5.11h1.459V9.543a.57.57 0 0 1 .224-.44.87.87 0 0 1 .561-.192c.14 0 .28.028.421.082.14.055.253.138.365.22.084-.165.168-.33.224-.494a1.17 1.17 0 0 0 .113-.522.437.437 0 0 0-.084-.247.92.92 0 0 0-.225-.165Z"/>
    <path fill="#002E47" d="M47.494 13.388h-1.46a.439.439 0 0 1-.448-.44V7.812c0-.22.168-.412.393-.44l.14-.027c.056 0 .14-.027.196-.027h.225c.28 0 .533.055.785.165a.59.59 0 0 1 .169.11c.056-.028.084-.055.14-.11.14-.083.28-.138.421-.193.196-.054.365-.082.561-.082.112 0 .225 0 .337.027.14.028.28.055.393.11a.91.91 0 0 1 .364.275l.029.028c.112.137.168.33.14.522 0 .247-.056.467-.14.686-.057.165-.169.358-.253.55a.434.434 0 0 1-.309.22c-.14.027-.28 0-.392-.11l-.253-.165c-.056-.028-.14-.028-.224-.028a.481.481 0 0 0-.281.083c-.028.027-.056.055-.056.11v3.379c-.028.275-.225.494-.477.494Zm-1.01-.906h.533v-2.94c0-.302.14-.577.365-.797h-.085c-.168-.027-.308-.164-.364-.357 0-.027-.028-.082-.084-.082a.88.88 0 0 0-.365-.082h-.028v4.258h.028Zm1.823-4.039c.169 0 .365.028.534.11v-.027a.832.832 0 0 0 .084-.357h-.028c-.028-.028-.084-.028-.14-.028-.085 0-.14-.027-.225-.027-.084 0-.168 0-.252.027-.085.028-.169.055-.253.11a.74.74 0 0 0-.168.137c-.029.028-.056.083-.085.11.14-.055.31-.082.477-.082l.056.027ZM54.37 11.577V9.599c0-.275-.029-.577-.113-.852a1.358 1.358 0 0 0-.364-.604c-.197-.165-.421-.302-.646-.357a3.844 3.844 0 0 0-.982-.11c-.252 0-.533.027-.785.055-.225.027-.45.11-.674.165a1.431 1.431 0 0 0-.449.247c-.084.055-.168.165-.168.275 0 .11.028.22.084.33.056.137.14.274.253.384.224-.138.448-.247.701-.33.253-.11.533-.137.814-.137a1.03 1.03 0 0 1 .701.165.64.64 0 0 1 .225.577v.192h-.477l-.842.082c-.28.055-.59.138-.842.275-.252.11-.505.302-.673.522-.197.247-.28.55-.253.88 0 .246.056.494.14.713.085.193.225.357.393.467.169.11.337.193.533.248.197.055.393.082.59.082.308 0 .645-.055.954-.165.224-.11.448-.247.617-.412a.649.649 0 0 0 .252.412.86.86 0 0 0 .59.138c.112 0 .224 0 .336-.028.113-.027.253-.055.365-.11-.224-.302-.309-.714-.28-1.126Zm-1.375-.165a.294.294 0 0 1-.084.192c-.057.083-.14.138-.225.193-.112.055-.196.11-.309.137a1.687 1.687 0 0 1-.392.055c-.225.027-.421-.055-.59-.22a.811.811 0 0 1-.168-.494c0-.165.028-.303.14-.44a.82.82 0 0 1 .337-.275.96.96 0 0 1 .477-.137c.168-.027.337-.055.533-.055h.28v1.044Z"/>
    <path fill="#002E47" d="M51.56 13.36h-.085a2.08 2.08 0 0 1-.701-.11 1.543 1.543 0 0 1-.674-.329 1.961 1.961 0 0 1-.533-.632 2.035 2.035 0 0 1-.196-.906c-.028-.412.112-.797.336-1.127.225-.274.477-.494.786-.632a.456.456 0 0 1-.365-.164c-.14-.138-.224-.33-.308-.495a2.281 2.281 0 0 1-.14-.467v-.082a.833.833 0 0 1 .336-.605c.168-.137.365-.247.561-.302.225-.082.477-.165.73-.192.28-.055.589-.083.87-.083.364 0 .729.028 1.094.138.308.082.617.247.841.467.225.22.393.494.477.796.085.33.14.632.113.962v1.978c-.028.33.028.66.196.962.056.11.056.247.028.357-.056.11-.14.22-.252.247-.14.055-.28.11-.45.137-.14.028-.28.028-.42.055a1.298 1.298 0 0 1-.842-.22s-.028 0-.028-.027c-.028-.027-.084-.055-.112-.11-.084.055-.197.11-.309.137-.224.165-.589.248-.954.248Zm-.17-3.131c-.14.027-.252.082-.392.165a1.61 1.61 0 0 0-.533.412 1 1 0 0 0-.168.577v.027c0 .192.028.357.112.522a.879.879 0 0 0 .617.467c.14.055.309.055.45.055.14 0 .28 0 .42-.027-.309 0-.617-.11-.842-.357l-.028-.028a1.137 1.137 0 0 1-.28-.77c0-.246.056-.494.224-.686.14-.165.28-.275.42-.357Zm2.19 2.143c.084.055.196.082.28.055h.112c-.084-.303-.112-.605-.084-.907V9.57a2.93 2.93 0 0 0-.084-.715c-.056-.137-.112-.274-.253-.412a1.177 1.177 0 0 0-.449-.247 2.954 2.954 0 0 0-.841-.11c-.253 0-.477.027-.73.055a2.367 2.367 0 0 0-.589.165.673.673 0 0 0-.309.165c0 .027.028.055.028.055.113-.055.225-.11.365-.165.309-.138.645-.193.982-.193a1.47 1.47 0 0 1 .954.248c.028.027.056.027.056.055.253.247.393.577.365.934v.165c0 .164-.084.274-.196.357.14.082.224.22.224.384v1.099c0 .165-.084.33-.196.44v.027a.47.47 0 0 1 .28.357c.028.083.056.11.084.138Zm-1.824-.907c.056.055.112.055.196.055h.056c.084 0 .168 0 .253-.027.084-.028.14-.055.224-.083.028-.027.056-.027.084-.055v-.522c-.112 0-.196.028-.308.028a1.608 1.608 0 0 0-.337.11c-.056.027-.14.082-.168.137-.028.027-.056.082-.028.137v.028c-.029.082 0 .137.028.192Zm.252-2.335c-.224 0-.42.027-.617.11-.112.055-.225.082-.337.137.168-.055.337-.11.505-.137.28-.055.533-.083.814-.083a1.028 1.028 0 0 0-.309-.054c0 .027-.028.027-.056.027ZM7.509 9.653l-5.556-1.84 7.744-2.857 3.676-1.347-3.676 11.402-2.188-5.358Z"/>
    <path fill="#FF9D28" d="M1.96 7.841h7.745v-2.83L1.96 7.842Z"/>
    <path fill="#69C3EA" d="M9.703 5.01v10.055l3.676-11.4L9.703 5.01Z"/>
    <path fill="#004F80" d="M9.7 7.84H6.78L9.7 15.065V7.84Z"/>
    <path fill="#E14748" d="m1.96 7.84 5.556 1.868-.73-1.868H1.962Z"/>
    <path fill="#fff" d="M19.717 12.402c-.056.056-.14.11-.224.165-.113.083-.253.138-.393.193-.197.082-.393.11-.59.165-.252.054-.533.082-.785.054-.505 0-1.01-.082-1.487-.274a2.759 2.759 0 0 1-1.038-.742 2.835 2.835 0 0 1-.59-1.154 5.068 5.068 0 0 1-.196-1.456c0-.494.056-.989.197-1.456.112-.412.336-.824.617-1.154a2.83 2.83 0 0 1 1.038-.77 3.722 3.722 0 0 1 1.459-.274c.252 0 .505.028.757.083l.59.164c.14.055.28.138.42.22.085.055.169.11.253.193.056.054.112.137.168.192.056.082.084.165.056.247a.666.666 0 0 1-.168.44 4.813 4.813 0 0 1-.337.384c-.084-.082-.196-.165-.28-.247-.112-.082-.225-.165-.365-.22a1.486 1.486 0 0 0-.449-.165 1.307 1.307 0 0 0-.561-.055 1.656 1.656 0 0 0-1.487.77c-.14.247-.252.494-.309.796a4.957 4.957 0 0 0-.084.907c0 .302.028.632.084.934.056.275.169.55.337.797.168.22.365.412.617.55.477.219.982.274 1.487.137.14-.055.309-.11.45-.165.111-.055.224-.138.336-.22.084-.082.168-.137.253-.192l.14.192c.056.055.112.137.168.22.056.082.084.165.112.22a.509.509 0 0 1 .056.22.508.508 0 0 1-.056.22c-.056-.028-.112.027-.196.082ZM25.215 11.607c-.028.412.056.824.253 1.209a1.413 1.413 0 0 1-.365.11c-.112.027-.225.027-.337.027-.196 0-.42-.027-.589-.137a.649.649 0 0 1-.253-.413 2.405 2.405 0 0 1-.617.413c-.308.11-.617.164-.954.164-.196 0-.393-.027-.589-.082a1.437 1.437 0 0 1-.505-.247 1.524 1.524 0 0 1-.393-.467 1.262 1.262 0 0 1-.14-.715c0-.302.084-.604.252-.879.169-.22.393-.412.646-.522.252-.137.56-.22.841-.274.281-.055.562-.083.842-.083h.477V9.52c.028-.22-.056-.412-.224-.577a1.068 1.068 0 0 0-.702-.165c-.28 0-.56.055-.813.137-.253.11-.477.22-.702.33a1.15 1.15 0 0 1-.252-.384.72.72 0 0 1-.085-.33c0-.11.085-.22.169-.275.14-.11.28-.192.449-.247.224-.083.449-.137.673-.165.253-.055.533-.082.786-.055.336 0 .673.028.982.11.252.055.477.192.645.357.168.165.309.385.365.605.084.274.112.549.112.851l.028 1.896Zm-1.375-1.209h-.28c-.169 0-.365.027-.533.055-.169.027-.309.082-.477.137a.822.822 0 0 0-.337.275.912.912 0 0 0-.14.467c0 .192.056.357.168.495.14.164.365.22.59.22.14 0 .252-.028.392-.056a1.05 1.05 0 0 0 .309-.137c.084-.055.168-.11.224-.192a.247.247 0 0 0 .084-.193v-1.071ZM27.887 8.336c.14-.165.337-.302.533-.412.28-.137.59-.22.926-.192.253 0 .505.055.758.137.252.083.449.247.645.412.197.22.365.495.449.77.112.384.168.796.168 1.18 0 .468-.056.907-.196 1.347-.112.302-.28.577-.505.824-.196.193-.42.357-.673.44-.253.082-.506.11-.758.137-.168 0-.365-.027-.533-.055a.994.994 0 0 1-.393-.165l-.252-.165-.113-.11v2.583h-1.459V7.869l.14-.027c.057 0 .113-.028.141-.028h.196c.197 0 .421.028.618.11a.9.9 0 0 1 .308.412Zm1.908 1.923c0-.192-.028-.384-.056-.577a1.335 1.335 0 0 0-.168-.467.709.709 0 0 0-.337-.302 1.12 1.12 0 0 0-.505-.11.816.816 0 0 0-.617.165.44.44 0 0 0-.169.357v2.226c.084.082.197.137.309.192.168.082.337.11.505.11a.798.798 0 0 0 .786-.412c.196-.357.28-.77.252-1.182ZM32.432 12.07a1.222 1.222 0 0 1-.084-.44c0-.164-.028-.302-.028-.466V6.3l.169-.027c.056 0 .112-.028.168-.028h.168c.113 0 .225 0 .337.028.112.027.224.055.309.137a.955.955 0 0 1 .224.247c.056.138.084.275.084.412v.742h1.487v1.044H33.78v2.225c0 .495.197.742.618.742.084 0 .196-.027.28-.055.084-.027.169-.055.253-.11.056-.027.14-.082.196-.11.028-.027.084-.055.112-.082.084.137.169.247.253.412.056.11.084.192.084.33a.35.35 0 0 1-.112.274.874.874 0 0 1-.309.248 2.732 2.732 0 0 1-.505.192c-.196.055-.42.082-.617.055a1.717 1.717 0 0 1-1.038-.247 1.29 1.29 0 0 1-.562-.66ZM38.967 11.934c.169 0 .309-.028.477-.055.112-.027.253-.082.365-.137.112-.055.197-.11.28-.193l.225-.192c.112.137.197.275.28.412.085.11.141.247.141.412-.028.165-.112.33-.28.412-.197.138-.422.22-.646.275-.309.082-.645.137-.954.11-.337 0-.673-.055-.982-.137a2.167 2.167 0 0 1-.87-.44 2.017 2.017 0 0 1-.617-.824 3.1 3.1 0 0 1-.224-1.346c0-.385.056-.77.224-1.127.112-.302.309-.577.561-.796.225-.193.505-.358.786-.468.28-.082.589-.137.898-.137.336 0 .701.055 1.01.192.252.11.505.275.673.495.168.22.309.44.393.714.084.275.112.55.112.824v.522c0 .055 0 .083-.028.138h-3.17c.028.357.14.687.364.961.197.275.59.412.982.385Zm.477-2.115c0-.275-.056-.577-.196-.825-.168-.22-.449-.357-.73-.302a.92.92 0 0 0-.701.302c-.196.248-.28.522-.253.825h1.88ZM43.289 8.362c.056-.082.112-.137.168-.22.084-.082.169-.164.253-.22l.336-.164a.974.974 0 0 1 .393-.055c.084 0 .197 0 .28.028a.55.55 0 0 1 .281.082c.085.027.14.082.197.165a.437.437 0 0 1 .084.247c0 .192-.056.357-.112.522-.056.165-.14.33-.225.495-.112-.083-.224-.165-.364-.22a1.146 1.146 0 0 0-.421-.083.87.87 0 0 0-.562.193.57.57 0 0 0-.224.44v3.406h-1.459v-5.11l.14-.028c.056 0 .113-.027.14-.027h.197c.196 0 .42.027.59.137.168.11.28.248.308.412ZM47.41 8.362c.057-.082.113-.137.169-.22.084-.082.168-.137.253-.22l.336-.164a.974.974 0 0 1 .393-.055c.084 0 .197 0 .28.028.085 0 .169.027.253.082.084.027.14.082.197.165a.436.436 0 0 1 .084.247c0 .192-.056.357-.112.522-.057.165-.14.33-.225.495a1.595 1.595 0 0 0-.365-.22 1.147 1.147 0 0 0-.42-.083.869.869 0 0 0-.562.193.57.57 0 0 0-.224.44v3.406h-1.46v-5.11l.141-.028c.056 0 .112-.027.14-.027h.197c.196 0 .42.027.589.137a.55.55 0 0 1 .337.412ZM54.368 11.607c-.028.412.056.824.253 1.209a1.413 1.413 0 0 1-.365.11c-.112.027-.224.027-.337.027-.196 0-.42-.027-.589-.137a.65.65 0 0 1-.252-.413 2.404 2.404 0 0 1-.618.413c-.308.11-.617.164-.954.164-.196 0-.392-.027-.589-.082a1.88 1.88 0 0 1-.533-.247 1.08 1.08 0 0 1-.393-.467 1.262 1.262 0 0 1-.14-.715c-.028-.302.084-.604.252-.879.169-.22.393-.412.646-.522.252-.137.56-.22.841-.274.281-.055.562-.083.842-.083h.505V9.52c.028-.22-.056-.412-.224-.577a1.068 1.068 0 0 0-.702-.165c-.28 0-.56.055-.813.137-.253.11-.477.22-.702.33a1.15 1.15 0 0 1-.252-.384.72.72 0 0 1-.084-.33c0-.11.084-.22.168-.275.14-.11.28-.192.449-.247.224-.083.449-.137.673-.165.253-.055.533-.082.786-.055.337 0 .673.028.982.11.252.055.477.192.645.357.169.165.309.385.365.605.084.274.112.549.112.851l.028 1.896Zm-1.375-1.209h-.28c-.169 0-.365.027-.533.055-.169.027-.309.082-.477.137a.822.822 0 0 0-.337.275.818.818 0 0 0-.14.44c0 .192.056.357.168.494.14.165.365.22.59.22.14 0 .252-.028.392-.055.112-.027.224-.082.309-.137.084-.055.168-.11.224-.193a.247.247 0 0 0 .084-.192v-1.044Z"/>
    <path fill="#FF9D28" d="M25.244 21.137c-.084 0-.196-.027-.28-.054l-.926-.467c-.056-.028-.084-.028-.14-.028-.056 0-.113 0-.14.027l-.927.468c-.084.055-.196.082-.28.055a.669.669 0 0 1-.449-.193.584.584 0 0 1-.14-.467l.168-1.016c.028-.11-.028-.193-.084-.275l-.758-.714a.545.545 0 0 1-.14-.605c.056-.22.253-.357.477-.412l1.038-.165a.409.409 0 0 0 .253-.165l.449-.906c.14-.302.505-.412.813-.275a.669.669 0 0 1 .28.275l.478.907c.056.082.14.164.252.164l1.039.138c.224.027.42.192.476.412.057.22 0 .44-.168.604l-.785.742c-.085.082-.113.165-.085.275l.169 1.016a.627.627 0 0 1-.113.495c-.14.11-.308.192-.477.165Z"/>
    <path fill="#FF9D28" d="M23.904 16.029c.168 0 .336.11.42.247l.45.907c.055.137.196.22.336.247l1.038.137c.253.028.421.275.393.522-.028.11-.056.192-.14.247l-.758.715a.448.448 0 0 0-.14.412l.168.989a.482.482 0 0 1-.392.522c-.085 0-.197 0-.281-.055l-.926-.467c-.14-.083-.309-.083-.42 0l-.87.494a.453.453 0 0 1-.618-.22c-.056-.082-.056-.164-.056-.247l.168-.989a.472.472 0 0 0-.14-.412l-.758-.714a.412.412 0 0 1 0-.632.576.576 0 0 1 .253-.137l1.038-.138c.14-.027.28-.11.337-.247l.449-.907c.112-.165.28-.274.449-.274Zm0-.275c-.28 0-.561.165-.674.412l-.449.907a.155.155 0 0 1-.14.082l-1.038.137a.684.684 0 0 0-.59.495c-.084.275-.027.55.197.742l.758.714c.056.027.056.11.056.165l-.197 1.016c-.028.22.028.44.169.605.14.165.336.274.56.274a.677.677 0 0 0 .338-.082l.926-.495a.183.183 0 0 1 .168 0l.926.468a.76.76 0 0 0 .336.082c.225 0 .421-.11.562-.275a.775.775 0 0 0 .168-.604l-.168-.99c0-.054 0-.11.056-.164l.73-.687c.196-.192.28-.494.196-.742a.684.684 0 0 0-.59-.494l-1.038-.137c-.056 0-.112-.055-.14-.083l-.449-.907c-.14-.274-.393-.44-.673-.44Z"/>
    <path fill="#68C5ED" d="M57.572 21.194c-.028 0-.056-.027-.056-.055V5.645c0-.028.028-.055.056-.055s.056.027.056.055v15.494c0 .028-.028.055-.056.055ZM66.24 15.531h-.814v1.401h-1.964v-1.4h-2.946v-1.43l3.086-4.422h1.852v4.395h.813v1.456h-.028Zm-2.806-1.456v-.851c0-.165 0-.385.028-.632 0-.275.028-.412.028-.412h-.056a5.863 5.863 0 0 1-.393.714l-.814 1.181h1.207ZM66.828 16.11c0-.302.084-.55.28-.714.197-.165.45-.248.814-.248.337 0 .59.083.758.248.168.164.28.412.28.714s-.084.522-.28.687c-.197.165-.449.247-.758.247-.336 0-.589-.082-.785-.247-.225-.138-.309-.385-.309-.687ZM72.44 9.57c.786 0 1.375.165 1.824.467.42.302.645.742.645 1.319 0 .385-.112.714-.308 1.017-.197.302-.533.549-.982.769.56.302.926.604 1.15.906.225.303.337.632.337.99 0 .631-.225 1.153-.702 1.51-.477.358-1.15.522-1.992.522-.87 0-1.543-.165-1.992-.522-.449-.357-.701-.851-.701-1.483 0-.412.112-.77.308-1.072.197-.302.561-.577 1.038-.796-.392-.248-.673-.522-.87-.824-.168-.303-.28-.632-.28-.962 0-.55.225-.989.673-1.291.478-.385 1.095-.55 1.852-.55Zm-.87 5.385c0 .192.085.357.225.494.14.138.365.193.617.193.59 0 .898-.22.898-.632a.637.637 0 0 0-.196-.467c-.14-.165-.365-.33-.702-.522-.308.165-.505.302-.645.467-.14.11-.197.275-.197.467Zm.87-3.956a.86.86 0 0 0-.449.137.494.494 0 0 0-.168.385c0 .275.197.55.59.742.252-.138.392-.248.504-.385a.648.648 0 0 0 .14-.385.494.494 0 0 0-.168-.384c-.14-.055-.28-.11-.449-.11Z"/>
    <path fill="#FF9D28" d="M31.058 16.029c.168 0 .337.11.42.247l.45.907c.056.137.196.22.336.247l1.039.137c.252.028.42.275.392.522-.028.11-.056.192-.14.247l-.758.715a.448.448 0 0 0-.14.412l.169.989a.428.428 0 0 1-.365.522h-.084c-.085 0-.14-.028-.225-.055l-.926-.467c-.14-.083-.308-.083-.42 0l-.927.467a.465.465 0 0 1-.617-.193c-.056-.082-.056-.192-.056-.302l.169-.989a.472.472 0 0 0-.14-.412l-.73-.687a.412.412 0 0 1 0-.631c.084-.083.168-.11.252-.138l1.038-.137c.14-.028.28-.11.337-.247l.449-.907c.14-.137.309-.247.477-.247Zm0-.275a.784.784 0 0 0-.673.412l-.45.907a.155.155 0 0 1-.14.082l-1.038.137a.724.724 0 0 0-.617.824.75.75 0 0 0 .224.413l.758.714c.056.027.056.11.056.165l-.168.989c-.028.22.028.44.168.604.14.165.337.275.561.275a.678.678 0 0 0 .337-.082l.926-.468c.028 0 .056-.027.084-.027.028 0 .056 0 .084.027l.926.468a.76.76 0 0 0 .337.082c.224 0 .42-.11.56-.275a.775.775 0 0 0 .17-.604l-.17-.99c0-.054 0-.11.057-.164l.758-.714c.28-.275.308-.742.028-1.017a.889.889 0 0 0-.421-.22l-1.038-.137c-.056 0-.113-.055-.14-.082l-.45-.907c-.196-.247-.448-.412-.73-.412Z"/>
    <path fill="#FF9D28" d="m33.444 17.538-1.095-.137c-.14-.027-.308-.11-.364-.275l-.477-.961c-.113-.247-.421-.357-.646-.247-.112.055-.168.137-.252.247l-.477.961a.476.476 0 0 1-.365.275l-1.094.137c-.28.028-.449.303-.421.55a.52.52 0 0 0 .14.275l.814.769a.5.5 0 0 1 .14.44l-.168 1.043c-.056.275.112.495.393.55.112.027.252 0 .336-.055l.982-.495c.14-.082.337-.082.45 0l.981.495c.253.11.534.027.646-.192.056-.083.056-.193.056-.303l-.169-1.044a.526.526 0 0 1 .14-.44l.814-.768a.53.53 0 0 0 0-.687c-.168-.083-.28-.11-.364-.137ZM40.176 17.539l-1.067-.138c-.14-.027-.28-.11-.336-.247l-.45-.934c-.111-.22-.392-.33-.617-.22a.569.569 0 0 0-.224.22l-.449.934c-.056.137-.196.22-.337.247l-1.066.138c-.252.027-.42.274-.393.522.029.11.056.192.14.247l.758.714c.113.11.169.247.14.412l-.168 1.017c-.056.247.112.467.365.522.112.027.224 0 .309-.055l.953-.467c.14-.083.31-.083.421 0l.954.467c.225.11.505.027.618-.193.056-.082.056-.192.056-.274l-.169-1.017a.472.472 0 0 1 .14-.412l.73-.714c.169-.192.169-.467 0-.632-.084-.082-.196-.11-.308-.137ZM47.358 17.511l-1.066-.137c-.14-.028-.281-.11-.337-.247l-.477-.934c-.112-.22-.421-.33-.645-.22-.113.055-.169.137-.225.22l-.477.934c-.056.137-.196.22-.337.247l-1.066.137c-.252.028-.449.275-.42.55.027.11.056.192.14.247l.757.742c.112.11.169.247.14.44l-.168 1.016a.467.467 0 0 0 .365.55c.112.027.224 0 .308-.056l.954-.494a.438.438 0 0 1 .45 0l.953.494c.225.11.533.028.646-.192.056-.082.056-.192.056-.302l-.169-1.017c-.028-.137.029-.302.14-.44l.758-.741c.169-.192.169-.494 0-.66a.872.872 0 0 0-.28-.137Z"/>
    <path fill="#FF9D28" d="M37.933 16.029c.168 0 .337.11.42.247l.45.907c.056.137.196.22.336.247l1.039.137c.252.028.42.275.392.522-.028.11-.056.192-.14.247l-.73.715a.448.448 0 0 0-.14.412l.169.989a.482.482 0 0 1-.393.522c-.084.027-.197 0-.28-.055l-.927-.467c-.14-.083-.308-.083-.42 0l-.926.467c-.225.11-.505 0-.618-.22-.028-.083-.056-.165-.028-.247l.169-.99a.472.472 0 0 0-.14-.411l-.758-.715a.412.412 0 0 1 0-.631c.084-.083.168-.11.252-.138l1.038-.137c.14-.028.281-.11.337-.247l.449-.907c.112-.137.28-.247.449-.247Zm0-.275c-.28 0-.561.165-.673.412l-.45.907a.155.155 0 0 1-.14.082l-1.038.137a.724.724 0 0 0-.617.824.75.75 0 0 0 .224.413l.758.714c.056.027.056.11.056.165l-.168.989c-.028.22.028.44.168.604.14.165.337.275.561.275a.678.678 0 0 0 .337-.082l.926-.468c.028 0 .056-.027.084-.027.028 0 .056 0 .084.027l.926.468a.76.76 0 0 0 .337.082c.224 0 .42-.11.56-.275a.775.775 0 0 0 .17-.604l-.17-.99c0-.054 0-.11.057-.164l.73-.687c.28-.275.308-.742.028-1.016a.777.777 0 0 0-.421-.22l-1.038-.137c-.056 0-.113-.055-.14-.083l-.45-.907c-.168-.274-.42-.44-.701-.44Z"/>
    <path fill="#FF9D28" d="M37.933 16.029c.168 0 .337.11.42.247l.45.907c.056.137.196.22.336.247l1.039.137c.252.028.42.275.392.522-.028.11-.056.192-.14.247l-.73.715a.448.448 0 0 0-.14.412l.169.989c.056.247-.113.467-.365.522h-.084c-.084 0-.14-.028-.225-.055l-.926-.467c-.14-.083-.308-.083-.42 0l-.926.467a.465.465 0 0 1-.618-.193c-.056-.082-.056-.192-.056-.302l.169-.989a.472.472 0 0 0-.14-.412l-.758-.714a.412.412 0 0 1 0-.632c.084-.082.168-.11.252-.137l1.038-.138c.14-.027.28-.11.337-.247l.449-.907c.14-.11.28-.22.477-.22Zm0-.275a.784.784 0 0 0-.673.412l-.45.907a.155.155 0 0 1-.14.082l-1.038.137a.724.724 0 0 0-.617.824.75.75 0 0 0 .224.413l.758.714c.056.027.056.11.056.165l-.168.989c-.028.22.028.44.168.604.14.165.337.275.561.275a.678.678 0 0 0 .337-.082l.926-.468c.028 0 .056-.027.084-.027.028 0 .056 0 .084.027l.898.495a.76.76 0 0 0 .337.082c.224 0 .42-.11.56-.274a.775.775 0 0 0 .17-.605l-.17-.989c0-.055 0-.11.057-.165l.758-.714c.28-.275.308-.742.028-1.016a.777.777 0 0 0-.421-.22l-1.038-.137c-.056 0-.113-.055-.14-.083l-.45-.907c-.168-.274-.42-.44-.701-.44ZM45 16.029c.169 0 .337.11.422.247l.448.907c.056.137.197.22.337.247l1.038.137c.253.028.421.275.393.522-.028.11-.056.192-.14.247l-.73.715a.448.448 0 0 0-.14.412l.168.989a.482.482 0 0 1-.392.522c-.085.027-.197 0-.281-.055l-.926-.467c-.14-.083-.309-.083-.42 0l-.927.467a.465.465 0 0 1-.617-.193c-.056-.082-.056-.192-.056-.302l.168-.989a.472.472 0 0 0-.14-.412l-.73-.714a.412.412 0 0 1 0-.632c.085-.082.169-.11.253-.137l1.038-.138c.14-.027.28-.11.337-.247l.449-.907c.112-.11.28-.22.449-.22Zm.029-.275a.784.784 0 0 0-.674.412l-.449.907a.155.155 0 0 1-.14.082l-1.038.137a.684.684 0 0 0-.59.495c-.084.275-.027.55.197.742l.73.714c.056.027.056.11.056.165l-.169.989c-.028.22.028.44.169.604.14.165.336.275.56.275a.678.678 0 0 0 .338-.082l.925-.468c.028 0 .057-.027.085-.027.028 0 .056 0 .084.027l.926.468a.76.76 0 0 0 .336.082c.225 0 .421-.11.562-.275a.775.775 0 0 0 .168-.604l-.168-.99c0-.054 0-.11.056-.164l.73-.714c.196-.193.28-.495.196-.742a.684.684 0 0 0-.59-.495l-1.038-.137c-.056 0-.112-.055-.14-.082l-.449-.907c-.14-.247-.42-.412-.673-.412ZM54.628 18.529c.28-.275.309-.742.028-1.017a.89.89 0 0 0-.42-.22l-1.039-.137c-.056 0-.112-.055-.14-.082l-.45-.907c-.196-.247-.448-.412-.729-.412a.784.784 0 0 0-.673.412l-.449.907a.155.155 0 0 1-.14.082l-1.038.137a.724.724 0 0 0-.618.824.75.75 0 0 0 .225.413l.757.714c.056.027.056.11.056.165l-.168.989c-.028.22.028.44.168.604.14.165.337.275.562.275a.678.678 0 0 0 .336-.082l.926-.468c.028 0 .056-.027.084-.027.028 0 .056 0 .084.027l.926.468a.76.76 0 0 0 .337.082c.224 0 .42-.11.561-.275a.775.775 0 0 0 .169-.604l-.169-.99c0-.054 0-.11.056-.164l.758-.714Zm-1.01.522a.448.448 0 0 0-.14.412l.168.989c.056.192-.056.384-.197.467v-3.434l.674.082c.252.028.42.275.393.522-.028.11-.056.192-.14.247l-.758.715Z"/>
  </g>
  <defs>
    <clipPath id="a">
      <path fill="#fff" d="M.5.89h78v25H.5z"/>
    </clipPath>
  </defs>
</svg>
