<svg xmlns="http://www.w3.org/2000/svg" width="79" height="53" fill="none">
  <g clip-path="url(#a)">
    <path fill="#454B4B" d="M1.5 1.391h76v50h-76z"/>
    <path stroke="#fff" stroke-width="2" d="M1.5 1.391h76v50h-76z"/>
    <mask id="b" width="62" height="12" x="8" y="10" maskUnits="userSpaceOnUse" style="mask-type:luminance">
      <path fill="#fff" d="M69.5 10h-61v12h61V10Z"/>
    </mask>
    <g mask="url(#b)">
      <path fill="#009C9C" d="m23.801 15.38-4.113-3.894a.37.37 0 0 0-.49 0l-.808.766 3.305 3.128a.326.326 0 0 1 .102.232.312.312 0 0 1-.102.232l-3.398 3.217.808.765a.369.369 0 0 0 .49 0l4.206-3.982a.329.329 0 0 0 .097-.232.329.329 0 0 0-.097-.232Z"/>
      <path fill="#40E3E3" d="m16.792 11.77-.298-.284a.369.369 0 0 0-.49 0l-.809.766.537.508 1.053.997 1.052-.997-1.045-.99ZM16.69 17.555l-1.052.997-.536.508.808.765a.369.369 0 0 0 .49 0l.297-.283 1.053-.997-1.06-.99Z"/>
      <path fill="#1ABAB8" d="M18.503 15.38a.33.33 0 0 1 .097.232.33.33 0 0 1-.097.232l-1.808 1.71 1.054.997 2.86-2.71a.327.327 0 0 0 .103-.231.312.312 0 0 0-.102-.232l-2.761-2.612-1.053.997 1.707 1.617Z"/>
      <path fill="#87F0F0" d="m11.794 15.473 2.861-2.708-1.053-.998-.3-.28a.369.369 0 0 0-.49 0l-4.21 3.986a.326.326 0 0 0-.102.232.312.312 0 0 0 .102.232l4.113 3.894c.066.06.154.092.245.092a.369.369 0 0 0 .245-.092l.302-.282 1.054-.998-2.767-2.614a.327.327 0 0 1-.102-.232.312.312 0 0 1 .102-.232Z"/>
      <path fill="#40E3E3" d="m14.984 15.474 1.264-1.196-1.053-.997-.536-.508-2.862 2.71a.312.312 0 0 0 0 .464l2.756 2.605.537-.508 1.053-.997-1.166-1.103a.329.329 0 0 1-.097-.232.33.33 0 0 1 .097-.232"/>
      <path fill="#17CFCF" d="m14.988 15.937 1.166 1.102 1.262-1.196a.327.327 0 0 0 .102-.232.312.312 0 0 0-.102-.232l-1.164-1.102-1.264 1.196a.329.329 0 0 0-.097.232c0 .086.034.169.097.232Z"/>
      <path fill="#fff" d="M27.101 14.554c.012-.44.104-.876.274-1.287.158-.378.402-.72.715-.999a3.326 3.326 0 0 1 1.157-.646 5.113 5.113 0 0 1 1.61-.229 5.119 5.119 0 0 1 1.788.264c.411.144.79.36 1.118.635.25.211.45.472.583.764.096.212.16.437.19.667a.252.252 0 0 1-.017.125.266.266 0 0 1-.076.103.37.37 0 0 1-.244.088h-1.005a.348.348 0 0 1-.218-.064.423.423 0 0 1-.116-.136c-.018-.03-.061-.1-.13-.206a1.428 1.428 0 0 0-.337-.329 2.374 2.374 0 0 0-.6-.304 2.732 2.732 0 0 0-.933-.136 2.225 2.225 0 0 0-1.49.476 1.74 1.74 0 0 0-.438.578c-.103.22-.156.457-.157.697a16.11 16.11 0 0 0-.025.958c0 .34 0 .66.025.958.023.65.224 1.123.596 1.416.424.31.95.465 1.486.44.284.002.568-.03.844-.095.241-.056.468-.16.663-.305.193-.148.342-.34.435-.558.11-.27.163-.558.156-.847v-.1H31.44a.33.33 0 0 1-.236-.095.303.303 0 0 1-.099-.221v-.835c.001-.084.037-.164.1-.224a.35.35 0 0 1 .235-.094H34.3a.35.35 0 0 1 .236.094c.062.06.098.14.099.224v1.292c.005.442-.075.883-.236 1.298a2.74 2.74 0 0 1-.716 1.016 3.32 3.32 0 0 1-1.18.677 5.804 5.804 0 0 1-3.289 0 3.172 3.172 0 0 1-1.148-.643 2.804 2.804 0 0 1-.701-1.016 3.753 3.753 0 0 1-.268-1.298c0-.15-.015-.314-.018-.493-.004-.18 0-.366 0-.554v-.552c0-.18.01-.338.018-.494M38.464 14.92c-.21-.006-.42.028-.615.1a1.35 1.35 0 0 0-.427.257c-.113.1-.204.22-.269.354a1.283 1.283 0 0 0-.116.369h2.804a1.82 1.82 0 0 0-.093-.37.946.946 0 0 0-.223-.353 1.152 1.152 0 0 0-.41-.258 1.777 1.777 0 0 0-.65-.1Zm-3.04 1.762a3.59 3.59 0 0 1 .211-1.24c.13-.373.337-.718.608-1.015.267-.287.595-.518.962-.677.394-.167.82-.25 1.252-.246a3.17 3.17 0 0 1 1.252.24c.37.153.702.376.976.656.27.276.478.599.615.951.146.367.22.755.219 1.146v.529a.315.315 0 0 1-.1.223.351.351 0 0 1-.237.095h-4.145a.939.939 0 0 0 .116.476c.08.133.188.248.319.338.137.097.292.168.457.212.175.046.355.07.537.07.218.005.435-.02.645-.077a1.4 1.4 0 0 0 .41-.193c.07-.05.144-.094.224-.13a.634.634 0 0 1 .236-.036h.992c.09.001.178.035.243.095a.265.265 0 0 1 .075.101c.016.039.022.08.018.122a.953.953 0 0 1-.193.424c-.145.198-.327.37-.536.508a3.56 3.56 0 0 1-.895.423 3.84 3.84 0 0 1-1.223.17 3.34 3.34 0 0 1-1.252-.23c-.37-.144-.7-.365-.969-.646a2.908 2.908 0 0 1-.608-1.006 3.73 3.73 0 0 1-.21-1.287M44.48 17.526a.805.805 0 0 0 .205.58c.136.146.39.22.764.22h.756c.089 0 .173.034.236.093s.099.139.1.223v.775a.316.316 0 0 1-.1.224.351.351 0 0 1-.236.094h-.92c-.778 0-1.374-.178-1.787-.534-.414-.357-.623-.904-.626-1.64v-2.527h-.827a.33.33 0 0 1-.234-.095.28.28 0 0 1-.1-.222v-.777a.284.284 0 0 1 .1-.221.321.321 0 0 1 .234-.095h.821v-1.917a.314.314 0 0 1 .1-.222.35.35 0 0 1 .235-.094h.944a.35.35 0 0 1 .235.094c.062.059.098.139.1.222v1.917h1.609c.086.004.166.04.226.098.059.06.093.137.094.218v.777a.313.313 0 0 1-.1.223.35.35 0 0 1-.235.094h-1.61l.015 2.492ZM52.639 16.67l-1.367-3.351-1.364 3.35h2.73Zm-.683-5.161a.417.417 0 0 1 .298.1c.08.087.14.19.179.3l3.04 7.428a.27.27 0 0 1 .013.082.315.315 0 0 1-.1.223.35.35 0 0 1-.236.095h-.895a.495.495 0 0 1-.348-.1.592.592 0 0 1-.136-.195l-.537-1.303h-3.922l-.536 1.303a.59.59 0 0 1-.136.195.474.474 0 0 1-.349.1h-.894a.351.351 0 0 1-.235-.095.315.315 0 0 1-.1-.223.23.23 0 0 1 .013-.082l3.04-7.429a.862.862 0 0 1 .18-.3.416.416 0 0 1 .299-.1h1.362ZM60.798 17.01a2.897 2.897 0 0 0 0-.657c-.049-.508-.215-.877-.496-1.098a1.61 1.61 0 0 0-1.03-.339c-.374-.011-.74.11-1.024.339-.144.124-.26.275-.342.442a1.34 1.34 0 0 0-.136.533 3.12 3.12 0 0 0-.025.447c-.002.15.006.298.025.447.022.367.193.713.478.963.281.237.648.363 1.024.352.375.009.741-.111 1.03-.338.281-.222.447-.59.496-1.1v.01Zm-1.15 2.845a3.123 3.123 0 0 1-1.225-.24 2.1 2.1 0 0 1-.385-.236 2.145 2.145 0 0 1-.259-.229v2.502a.316.316 0 0 1-.1.224.35.35 0 0 1-.236.095H56.5a.35.35 0 0 1-.236-.095.315.315 0 0 1-.1-.224v-7.71a.316.316 0 0 1 .1-.222.351.351 0 0 1 .236-.094h.943a.351.351 0 0 1 .235.094c.063.06.099.139.101.223v.27a2.145 2.145 0 0 1 .65-.458 3.124 3.124 0 0 1 1.225-.239 2.645 2.645 0 0 1 1.98.84c.24.26.43.559.56.882.136.332.214.683.229 1.04.009.116.013.253.013.41 0 .158 0 .295-.013.412a3.09 3.09 0 0 1-.229 1.04 2.92 2.92 0 0 1-.56.881c-.238.257-.53.465-.856.612-.354.154-.74.23-1.13.222ZM67.816 17.01a2.886 2.886 0 0 0 0-.657c-.05-.508-.215-.877-.497-1.098a1.602 1.602 0 0 0-1.03-.339c-.374-.011-.74.11-1.025.339-.144.124-.26.275-.342.442a1.34 1.34 0 0 0-.136.533 3.46 3.46 0 0 0-.025.447c-.001.15.007.298.025.447.022.367.193.713.478.963.282.237.648.363 1.025.352.375.01.741-.111 1.03-.338.282-.222.447-.59.497-1.1v.01Zm-1.155 2.836a3.136 3.136 0 0 1-.689-.07 2.93 2.93 0 0 1-.536-.169 2.078 2.078 0 0 1-.651-.459v2.505a.294.294 0 0 1-.1.223.321.321 0 0 1-.234.095h-.945a.35.35 0 0 1-.236-.095.314.314 0 0 1-.098-.224v-7.71a.312.312 0 0 1 .1-.222.349.349 0 0 1 .234-.094h.945a.353.353 0 0 1 .234.095.316.316 0 0 1 .1.222v.27a2.078 2.078 0 0 1 .65-.459 2.93 2.93 0 0 1 .537-.169c.226-.048.457-.071.689-.07.388-.004.773.074 1.125.23.326.147.617.354.856.61.24.261.428.56.558.883.136.332.214.683.23 1.04.008.116.011.253.011.41 0 .158 0 .295-.012.412a3.09 3.09 0 0 1-.229 1.04c-.13.322-.319.62-.558.881-.24.257-.53.465-.856.612a2.694 2.694 0 0 1-1.125.228"/>
    </g>
    <path fill="#fff" d="M20.257 31c-.348 0-.655-.054-.92-.161a1.323 1.323 0 0 1-.618-.5c-.146-.23-.219-.519-.219-.867V27.2c0-.04.015-.074.045-.1a.14.14 0 0 1 .1-.044h.916c.04 0 .075.014.1.044.03.026.046.06.046.1v2.256c0 .188.046.331.14.427.093.097.228.145.404.145.176 0 .309-.048.398-.145.094-.096.14-.239.14-.427V27.2c0-.04.016-.074.046-.1a.147.147 0 0 1 .106-.044h.91c.04 0 .074.014.1.044.03.026.045.06.045.1v2.272c0 .348-.073.637-.218.867a1.29 1.29 0 0 1-.612.5 2.383 2.383 0 0 1-.91.161ZM24.22 31c-.392 0-.72-.054-.982-.161-.258-.111-.452-.254-.583-.428a1.019 1.019 0 0 1-.202-.561c0-.033.011-.061.034-.083a.114.114 0 0 1 .084-.034h.892c.052 0 .093.01.123.028.03.015.062.037.096.067.034.04.073.08.118.116a.58.58 0 0 0 .174.084.985.985 0 0 0 .247.028.954.954 0 0 0 .398-.067c.094-.048.14-.113.14-.195a.189.189 0 0 0-.078-.155.701.701 0 0 0-.253-.111 5.623 5.623 0 0 0-.488-.106 3.124 3.124 0 0 1-.746-.21 1.173 1.173 0 0 1-.483-.384 1.059 1.059 0 0 1-.163-.6c0-.241.068-.454.202-.64.139-.184.33-.329.573-.432.247-.104.533-.156.858-.156.27 0 .507.035.713.106.21.07.385.162.528.277.142.111.25.232.325.361a.8.8 0 0 1 .118.373.122.122 0 0 1-.04.089.108.108 0 0 1-.078.033h-.937a.291.291 0 0 1-.118-.022.25.25 0 0 1-.084-.073c-.019-.051-.066-.098-.14-.138a.594.594 0 0 0-.287-.062.53.53 0 0 0-.291.067.2.2 0 0 0-.102.183c0 .056.021.104.062.145a.56.56 0 0 0 .22.111c.104.03.25.063.437.1.355.052.641.126.858.222.221.097.382.222.483.378.101.156.152.35.152.583 0 .263-.077.49-.23.678a1.48 1.48 0 0 1-.635.439c-.265.1-.57.15-.914.15ZM26.627 30.944a.15.15 0 0 1-.102-.038.144.144 0 0 1-.044-.106v-3.6c0-.04.014-.074.044-.1a.14.14 0 0 1 .102-.044h2.75c.04 0 .076.014.106.044.03.026.045.06.045.1v.656c0 .037-.015.07-.045.1a.146.146 0 0 1-.107.044h-1.734v.55h1.61c.042 0 .078.015.108.044.03.026.044.06.044.1v.6c0 .041-.014.076-.044.106a.158.158 0 0 1-.107.039h-1.61V30h1.778c.041 0 .077.015.107.044.03.03.045.065.045.106v.65c0 .04-.015.076-.045.106a.158.158 0 0 1-.107.038h-2.794ZM30.293 30.944a.15.15 0 0 1-.101-.038.144.144 0 0 1-.045-.106v-3.6c0-.04.015-.074.045-.1a.14.14 0 0 1 .101-.044h1.6c.508 0 .907.114 1.195.344.292.23.438.55.438.961 0 .26-.06.48-.18.661-.12.182-.277.324-.471.428l.73 1.311a.136.136 0 0 1 .016.061.132.132 0 0 1-.034.09.115.115 0 0 1-.084.032h-.948c-.071 0-.126-.016-.163-.05a.3.3 0 0 1-.073-.1l-.561-1.144h-.404v1.15a.144.144 0 0 1-.146.144h-.915Zm1.06-2.21h.534c.13 0 .228-.036.292-.106a.403.403 0 0 0 .095-.272.433.433 0 0 0-.095-.284c-.06-.078-.157-.116-.292-.116h-.533v.777ZM35.379 30.944a.15.15 0 0 1-.101-.038.144.144 0 0 1-.045-.106v-3.6c0-.04.015-.074.045-.1a.14.14 0 0 1 .101-.044h1.6c.508 0 .907.114 1.195.344.292.23.438.55.438.961 0 .26-.06.48-.18.661-.12.182-.277.324-.471.428l.73 1.311a.138.138 0 0 1 .016.061.132.132 0 0 1-.034.09.115.115 0 0 1-.084.032h-.948c-.071 0-.126-.016-.163-.05a.303.303 0 0 1-.073-.1l-.561-1.144h-.404v1.15a.144.144 0 0 1-.146.144h-.915Zm1.06-2.21h.534c.13 0 .228-.036.292-.106a.403.403 0 0 0 .095-.272.433.433 0 0 0-.095-.284c-.06-.078-.157-.116-.292-.116h-.533v.777ZM39.347 30.944a.15.15 0 0 1-.101-.038.144.144 0 0 1-.045-.106v-3.6c0-.04.015-.074.045-.1a.14.14 0 0 1 .1-.044h2.75c.042 0 .078.014.108.044.03.026.044.06.044.1v.656c0 .037-.015.07-.044.1a.146.146 0 0 1-.107.044h-1.734v.55h1.61c.041 0 .077.015.107.044.03.026.045.06.045.1v.6c0 .041-.015.076-.045.106a.158.158 0 0 1-.107.039h-1.61V30h1.779c.04 0 .076.015.106.044.03.03.045.065.045.106v.65c0 .04-.015.076-.045.106a.158.158 0 0 1-.106.038h-2.795ZM43.962 30.944a.234.234 0 0 1-.163-.055.265.265 0 0 1-.073-.117l-1.105-3.555a.16.16 0 0 1-.006-.04c0-.033.011-.06.034-.083a.124.124 0 0 1 .09-.038h.87c.067 0 .12.018.157.055a.271.271 0 0 1 .073.111l.662 2.317.662-2.317a.272.272 0 0 1 .073-.11.214.214 0 0 1 .157-.056h.87c.034 0 .062.012.084.038.023.023.034.05.034.084a.164.164 0 0 1-.006.039l-1.1 3.555a.248.248 0 0 1-.078.117c-.038.037-.092.055-.163.055h-1.072ZM46.987 30.944a.15.15 0 0 1-.101-.038.144.144 0 0 1-.045-.106v-3.6c0-.04.015-.074.045-.1a.14.14 0 0 1 .1-.044h.955c.041 0 .075.014.1.044.03.026.046.06.046.1v3.6a.144.144 0 0 1-.146.144h-.954ZM48.927 30.944a.15.15 0 0 1-.101-.038.144.144 0 0 1-.045-.106v-3.6c0-.04.015-.074.045-.1a.14.14 0 0 1 .101-.044h2.75c.041 0 .077.014.107.044.03.026.044.06.044.1v.656c0 .037-.015.07-.044.1a.147.147 0 0 1-.107.044h-1.734v.55h1.61c.042 0 .077.015.107.044.03.026.045.06.045.1v.6c0 .041-.015.076-.045.106a.158.158 0 0 1-.106.039h-1.611V30h1.779c.041 0 .076.015.106.044.03.03.045.065.045.106v.65c0 .04-.015.076-.044.106a.158.158 0 0 1-.107.038h-2.795ZM53.065 30.944a.228.228 0 0 1-.168-.06.238.238 0 0 1-.073-.134l-.562-3.55c0-.004-.002-.007-.005-.011v-.011c0-.034.011-.061.034-.084a.124.124 0 0 1 .09-.038h.87c.115 0 .179.046.19.138l.275 1.867.32-.989a.339.339 0 0 1 .05-.094c.026-.041.071-.061.135-.061h.488c.064 0 .109.02.135.06a.55.55 0 0 1 .056.095l.314.984.281-1.862c.011-.092.073-.138.185-.138h.87c.034 0 .062.012.084.038.026.023.04.05.04.084v.01c0 .005-.002.008-.006.012l-.561 3.55a.2.2 0 0 1-.073.133.229.229 0 0 1-.169.061h-.668c-.067 0-.117-.016-.151-.05a.372.372 0 0 1-.067-.094l-.511-1.367-.516 1.367a.247.247 0 0 1-.068.094c-.033.034-.084.05-.151.05h-.668ZM58.721 31c-.393 0-.72-.054-.982-.161-.258-.111-.453-.254-.584-.428a1.019 1.019 0 0 1-.202-.561.115.115 0 0 1 .118-.117h.892c.053 0 .094.01.124.028a.45.45 0 0 1 .095.067c.034.04.073.08.118.116a.58.58 0 0 0 .174.084.986.986 0 0 0 .247.028.953.953 0 0 0 .398-.067c.094-.048.14-.113.14-.195a.189.189 0 0 0-.078-.155.703.703 0 0 0-.252-.111 5.615 5.615 0 0 0-.489-.106 3.126 3.126 0 0 1-.746-.21 1.172 1.172 0 0 1-.483-.384 1.059 1.059 0 0 1-.163-.6c0-.241.068-.454.203-.64.138-.184.329-.329.572-.432.247-.104.533-.156.859-.156.27 0 .507.035.712.106.21.07.386.162.528.277.142.111.25.232.326.361.074.13.114.254.117.373a.122.122 0 0 1-.039.089.108.108 0 0 1-.078.033h-.938a.29.29 0 0 1-.118-.022.25.25 0 0 1-.084-.073c-.018-.051-.065-.098-.14-.138a.594.594 0 0 0-.286-.062.531.531 0 0 0-.292.067.2.2 0 0 0-.101.183c0 .056.02.104.062.145.04.04.114.078.218.111.105.03.251.063.438.1.356.052.642.126.859.222.22.097.382.222.483.378.1.156.151.35.151.583 0 .263-.077.49-.23.678a1.48 1.48 0 0 1-.634.439c-.266.1-.57.15-.915.15Z"/>
    <path fill="#FFC629" d="M15.538 34.11a.5.5 0 0 1 .924 0l1.14 2.742a.5.5 0 0 0 .422.306l2.96.237a.5.5 0 0 1 .285.878l-2.255 1.932a.5.5 0 0 0-.161.496l.689 2.888a.5.5 0 0 1-.747.543l-2.534-1.548a.5.5 0 0 0-.522 0l-2.534 1.548a.5.5 0 0 1-.747-.543l.69-2.888a.5.5 0 0 0-.162-.496l-2.255-1.931a.5.5 0 0 1 .285-.879l2.96-.237a.5.5 0 0 0 .422-.306l1.14-2.742ZM27.038 34.11a.5.5 0 0 1 .924 0l1.14 2.742a.5.5 0 0 0 .422.306l2.96.237a.5.5 0 0 1 .285.878l-2.255 1.932a.5.5 0 0 0-.161.496l.689 2.888a.5.5 0 0 1-.747.543l-2.534-1.548a.5.5 0 0 0-.522 0l-2.534 1.548a.5.5 0 0 1-.747-.543l.69-2.888a.5.5 0 0 0-.162-.496l-2.255-1.931a.5.5 0 0 1 .285-.879l2.96-.237a.5.5 0 0 0 .422-.306l1.14-2.742ZM38.538 34.11a.5.5 0 0 1 .924 0l1.14 2.742a.5.5 0 0 0 .422.306l2.96.237a.5.5 0 0 1 .285.878l-2.255 1.932a.5.5 0 0 0-.161.496l.689 2.888a.5.5 0 0 1-.747.543l-2.534-1.548a.5.5 0 0 0-.522 0l-2.534 1.548a.5.5 0 0 1-.747-.543l.69-2.888a.5.5 0 0 0-.162-.496l-2.255-1.931a.5.5 0 0 1 .285-.879l2.96-.237a.5.5 0 0 0 .422-.306l1.14-2.742ZM50.038 34.11a.5.5 0 0 1 .924 0l1.14 2.742a.5.5 0 0 0 .422.306l2.96.237a.5.5 0 0 1 .285.878l-2.255 1.932a.5.5 0 0 0-.161.496l.689 2.888a.5.5 0 0 1-.747.543l-2.534-1.548a.5.5 0 0 0-.522 0l-2.534 1.548a.5.5 0 0 1-.747-.543l.69-2.888a.5.5 0 0 0-.162-.496l-2.255-1.931a.5.5 0 0 1 .285-.879l2.96-.237a.5.5 0 0 0 .422-.306l1.14-2.742ZM61.538 34.11a.5.5 0 0 1 .924 0l1.14 2.742a.5.5 0 0 0 .422.306l2.96.237a.5.5 0 0 1 .285.878l-2.255 1.932a.5.5 0 0 0-.161.496l.689 2.888a.5.5 0 0 1-.747.543l-2.534-1.548a.5.5 0 0 0-.522 0l-2.534 1.548a.5.5 0 0 1-.747-.543l.69-2.888a.5.5 0 0 0-.162-.496l-2.255-1.931a.5.5 0 0 1 .285-.879l2.96-.237a.5.5 0 0 0 .422-.306l1.14-2.742Z"/>
  </g>
  <rect width="77" height="51" x="1" y=".891" stroke="#454B4B" rx="1.5"/>
  <defs>
    <clipPath id="a">
      <rect width="78" height="52" x=".5" y=".391" fill="#fff" rx="2"/>
    </clipPath>
  </defs>
</svg>
