<svg width="185" height="51" viewBox="0 0 185 51" fill="none" xmlns="http://www.w3.org/2000/svg">
    <path d="M25.0706 51C11.2471 51 0 39.5603 0 25.5C0 11.4387 11.2471 2.70326e-06 25.0706 2.70326e-06C38.8942 2.70326e-06 50.1413 11.4387 50.1413 25.5C50.1413 39.5603 38.8942 51 25.0706 51ZM25.0706 2.05377C12.3597 2.05377 2.01919 12.5714 2.01919 25.5C2.01919 38.4286 12.3597 48.9462 25.0706 48.9462C37.7816 48.9462 48.1221 38.4286 48.1221 25.5C48.1221 12.5714 37.7816 2.05377 25.0706 2.05377Z" fill="#E51937"/>
    <path d="M21.0557 22.0389C20.5025 20.8639 20.5015 20.8639 21.3552 20.0451C24.887 16.6573 28.4188 13.2705 31.9516 9.8847C32.0785 9.76286 32.2114 9.64928 32.4104 9.47065C34.4611 17.2127 36.4955 24.8898 38.5512 32.6484C38.2385 32.5793 37.9776 32.5338 37.7218 32.4646C33.0215 31.1905 28.3213 29.9111 23.619 28.6442C23.2607 28.5482 23.0678 28.3891 22.9521 28.0112C22.4242 26.2838 21.8587 24.5666 21.2953 22.8092C24.5307 21.1871 27.7295 19.5845 30.9679 17.9614C30.7587 17.2055 30.5578 16.4828 30.3304 15.6619C27.2148 17.8034 24.152 19.9098 21.0557 22.0389Z" fill="#E51937"/>
    <path d="M19.5932 21.3328C20.3119 23.7479 21.0184 26.1249 21.7443 28.5669C20.4256 28.9747 19.1577 29.3681 17.8887 29.7615C16.8938 30.0692 15.903 30.3893 14.9041 30.6795C13.8331 30.9903 12.9347 30.4998 12.5936 29.4208C12.2271 28.2633 11.8758 27.0996 11.5327 25.9338C11.1784 24.7309 11.622 23.8315 12.8047 23.4516C14.5802 22.8816 16.369 22.354 18.1506 21.8046C18.6145 21.6611 19.0744 21.5031 19.5932 21.3328Z" fill="#E51937"/>
    <path d="M17.9841 30.532C18.783 30.5723 19.5616 31.0307 19.9321 31.9972C20.5017 33.481 21.0316 34.9833 21.5158 36.4981C21.925 37.7785 21.2194 39.1229 20.0042 39.5359C18.7647 39.9572 17.446 39.3438 16.978 38.0779C16.4471 36.6416 15.9314 35.1981 15.4634 33.7402C14.9365 32.0974 16.0948 30.5155 17.9841 30.532Z" fill="#E51937"/>
    <path d="M36.297 17.9927C36.2899 17.1294 36.6929 16.6328 37.2867 16.5368C37.9009 16.4366 38.4725 16.829 38.6359 17.5105C38.976 18.923 39.2937 20.3407 39.6196 21.7563C39.6643 21.9494 39.7201 22.1436 39.7404 22.3397C39.8013 22.95 39.4623 23.5282 38.9729 23.678C38.3791 23.8587 37.7009 23.618 37.5233 22.981C37.0451 21.2587 36.6634 19.5085 36.297 17.9927Z" fill="#E51937"/>
    <path d="M72.4413 24.394C72.4412 27.1012 71.2404 29.2019 68.8921 30.2646L68.6621 30.3644L68.2339 30.5409L68.5006 30.9231L72.2708 36.3379H70.7668L67.1781 31.155L67.0452 30.9624L66.8172 31.0027L66.3374 31.0763C65.8496 31.1393 65.3416 31.1711 64.8473 31.1711H62.1964V36.3379H60.8937V17.5593H64.8473C67.4057 17.5593 69.2968 18.2862 70.5458 19.4792C71.7926 20.6703 72.4413 22.3666 72.4413 24.394ZM70.3247 24.394C70.3246 25.867 69.9397 27.0924 69.0855 27.9514C68.2308 28.8109 66.8484 29.3621 64.7343 29.3621H62.926V19.3966H64.7343C66.8323 19.3966 68.2155 19.9542 69.0746 20.8214C69.9334 21.6886 70.3247 22.9225 70.3247 24.394ZM71.0543 24.394C71.0543 22.7938 70.6271 21.3429 69.5881 20.294C68.549 19.2452 66.9537 18.6544 64.7343 18.6544H62.1964V30.1043H64.7343C66.9662 30.1043 68.5626 29.521 69.599 28.4788C70.6353 27.4363 71.0543 25.9923 71.0543 24.394ZM73.1709 24.394C73.1709 22.2013 72.4654 20.2942 71.0454 18.9378C69.6275 17.5834 67.5392 16.8172 64.8473 16.8172H60.1641V37.0801H62.926V31.9133H64.8473C65.4651 31.9133 66.1048 31.8639 66.7101 31.7701L70.3881 37.0801H73.6815L69.3541 30.8656C71.884 29.6477 73.1709 27.2995 73.1709 24.394Z" fill="white"/>
    <path d="M72.9783 36.7109H70.5794L66.8822 31.3706C66.2325 31.4862 65.5279 31.544 64.8498 31.544H62.5636V36.7109H60.5312V17.1905H64.8498C70.1002 17.1905 72.8087 20.1756 72.8087 24.3956C72.8087 27.324 71.4545 29.6204 68.8008 30.7108L72.9783 36.7109ZM64.7371 29.735C69.083 29.735 70.6921 27.4675 70.6921 24.3956C70.6921 21.3238 69.0546 19.0274 64.7371 19.0274H62.5636V29.735H64.7371Z" fill="white"/>
    <path d="M77.3438 17.1885H89.0284V19.0254H79.3751V28.1832H87.9838V29.9922H79.3751V34.8721H89.4233V36.709H77.3438V17.1885Z" fill="white"/>
    <path d="M93.7109 17.1885H98.3675C104.775 17.1885 108.755 21.0348 108.755 26.9493C108.755 32.8627 104.803 36.709 98.3675 36.709H93.7109V17.1885ZM98.2274 34.8442C103.9 34.8442 106.609 31.5999 106.609 26.9493C106.609 22.2986 103.9 19.0544 98.2274 19.0544H95.7433V34.8442H98.2274Z" fill="white"/>
    <path d="M112.898 17.1885H124.442V19.0254H114.931V28.1832H123.567V30.0779H114.931V36.709H112.898V17.1885Z" fill="white"/>
    <path d="M128.586 17.1885H130.618V34.8721H139.679V36.709H128.586V17.1885Z" fill="white"/>
    <path d="M149.842 16.9872H150.181L158.309 36.709H156.164L154.866 33.4368H145.157L143.887 36.709H141.883L149.842 16.9872ZM154.132 31.6577L150.745 22.9874C150.379 22.0694 150.012 20.6621 150.012 20.6621C150.012 20.6621 149.616 22.0694 149.25 22.9874L145.862 31.6577H154.132Z" fill="white"/>
    <path d="M159.602 26.9495C159.602 21.0649 163.892 16.9595 169.48 16.9595C172.245 16.9595 174.589 17.7628 176.169 19.4851L174.785 20.8925C173.544 19.5708 171.851 18.8253 169.48 18.8253C164.965 18.8253 161.718 22.2988 161.718 26.9495C161.718 31.6001 164.992 35.0736 169.649 35.0736C172.274 35.0736 174.137 34.2693 175.322 33.2945V29.2748H169.621V27.4379H177.241V34.2414C175.83 35.6477 173.262 36.9395 169.649 36.9395C163.92 36.9395 159.602 32.834 159.602 26.9495Z" fill="white"/>
    <path d="M89.794 37.0801V34.5007H79.7454V30.3634H88.3545V27.8123H79.7454V19.3966H89.3984V16.8172H76.9844V37.0801H89.794ZM77.714 17.5593H88.6687V18.6544H79.0157V28.5544H87.6238V29.6213H79.0157V35.2429H89.0633V36.3379H77.714V17.5593Z" fill="white"/>
    <path d="M108.396 26.9491C108.396 29.8185 107.439 32.1551 105.731 33.7757C104.02 35.3986 101.52 36.3379 98.3729 36.3379H94.0812V17.5593H98.3729C101.506 17.5593 104.007 18.499 105.721 20.1226C107.432 21.7436 108.396 24.0801 108.396 26.9491ZM106.249 26.9491C106.249 29.2019 105.595 31.0712 104.294 32.3771C102.994 33.6828 101.002 34.4734 98.2331 34.4735H96.1135V19.4258H98.2331C101.002 19.4258 102.994 20.2163 104.294 21.5222C105.594 22.8281 106.249 24.6966 106.249 26.9491ZM106.979 26.9491C106.979 24.5513 106.279 22.4726 104.807 20.9938C103.335 19.515 101.137 18.6837 98.2331 18.6837H95.3839V35.2156H98.2331C101.137 35.2156 103.335 34.3834 104.807 32.9045C106.279 31.4256 106.979 29.347 106.979 26.9491ZM109.125 26.9491C109.125 23.9039 108.099 21.3597 106.219 19.5791C104.341 17.8009 101.648 16.8172 98.3729 16.8172H93.3516V37.0801H98.3729C101.661 37.0801 104.354 36.0966 106.229 34.3182C108.105 32.5373 109.125 29.9932 109.125 26.9491Z" fill="white"/>
    <path d="M140.049 37.0801V34.5007H130.989V16.8172H128.227V37.0801H140.049ZM128.956 17.5593H130.259V35.2429H139.319V36.3379H128.956V17.5593Z" fill="white"/>
    <path d="M144.133 37.0801L145.403 33.808H154.617L155.915 37.0801H158.856L150.421 16.6155H149.594L149.502 16.8464L141.336 37.0801H144.133ZM150.01 17.5402L157.758 36.3379H156.408L155.109 33.0658H144.906L143.636 36.3379H142.425L150.01 17.5402ZM154.667 32.0292L151.082 22.8502L151.081 22.8482L150.948 22.4962C150.817 22.1283 150.691 21.7219 150.588 21.3739C150.521 21.1434 150.463 20.9407 150.424 20.7962C150.404 20.7242 150.389 20.6662 150.378 20.6268C150.373 20.6074 150.369 20.5925 150.366 20.5824C150.365 20.5773 150.364 20.5728 150.363 20.5703L150.362 20.5683L150.023 19.2645L149.659 20.5602L149.658 20.5632C149.657 20.5658 149.656 20.5702 149.655 20.5753C149.652 20.5856 149.647 20.601 149.642 20.6207C149.63 20.6603 149.613 20.7179 149.592 20.7901C149.55 20.9349 149.489 21.1379 149.418 21.3689C149.31 21.7171 149.177 22.1246 149.043 22.4942L148.909 22.8482L148.908 22.8502L145.322 32.0292H154.667ZM149.585 23.1275L149.727 22.7534C149.823 22.4883 149.915 22.2069 150 21.9437C150.12 22.3351 150.26 22.7663 150.404 23.1275L153.59 31.2861H146.398L149.585 23.1275Z" fill="white"/>
    <path d="M161.351 26.9497C161.351 31.7991 164.783 35.4451 169.647 35.4451C172.347 35.445 174.293 34.6164 175.549 33.5837L175.319 33.2943H175.32L175.549 33.5837L175.685 33.4717V28.9039H169.984V27.8088H176.874V34.0798C175.515 35.3715 173.081 36.5683 169.647 36.5684C164.107 36.5684 159.964 32.6166 159.964 26.9497C159.964 21.2779 164.084 17.331 169.478 17.331C172.032 17.3311 174.165 18.0339 175.651 19.4849L174.781 20.3702C173.489 19.1339 171.773 18.4544 169.478 18.4543C164.749 18.4543 161.351 22.1065 161.351 26.9497ZM162.081 26.9497C162.081 22.4917 165.176 19.1965 169.478 19.1965C171.764 19.1966 173.357 19.9109 174.519 21.1486L174.777 21.4239L175.041 21.1547L176.425 19.748L176.166 19.4859H176.167L176.425 19.748L176.674 19.4939L176.434 19.2318L176.112 18.902C174.455 17.3117 172.132 16.5879 169.478 16.5878C163.696 16.5878 159.234 20.8524 159.234 26.9497C159.234 33.0516 163.729 37.3105 169.647 37.3105C173.345 37.3104 176.008 35.9876 177.495 34.5063L177.604 34.3974V27.0667H169.254V29.646H174.956V33.1128C173.834 33.9819 172.096 34.7028 169.647 34.7029C165.198 34.7029 162.081 31.4014 162.081 26.9497Z" fill="white"/>
    <path d="M115.301 37.0801V30.4491H123.937V27.8123H115.301V19.3966H124.812V16.8172H112.539V37.0801H115.301ZM113.269 17.5593H124.083V18.6544H114.571V28.5544H123.207V29.707H114.571V36.3379H113.269V17.5593Z" fill="white"/>
    <path d="M178.68 19.3578C178.68 17.7635 179.909 16.6154 181.401 16.6154C182.919 16.6154 184.173 17.7635 184.173 19.3578C184.173 20.9273 182.919 22.0879 181.401 22.0879C179.909 22.0879 178.68 20.9273 178.68 19.3578ZM183.671 19.3578C183.671 17.9669 182.706 17.0614 181.401 17.0614C180.121 17.0614 179.194 17.9669 179.194 19.3578C179.194 20.7352 180.121 21.6418 181.401 21.6418C182.706 21.6418 183.671 20.7352 183.671 19.3578ZM182.631 20.8499H182.028L181.539 20.0982C181.489 20.1105 181.427 20.1105 181.364 20.1105H180.987V20.8499H180.436V17.8265H181.351C182.217 17.8265 182.631 18.3624 182.631 18.9747C182.631 19.3836 182.43 19.7657 182.041 19.9577L182.631 20.8499ZM181.351 19.6645C181.865 19.6645 182.078 19.4094 182.078 18.9881C182.078 18.5793 181.865 18.2994 181.351 18.2994H180.987V19.6645H181.351Z" fill="white"/>
</svg>