<svg width="182" height="50" viewBox="0 0 182 50" fill="none" xmlns="http://www.w3.org/2000/svg">
    <path d="M24.696 49.3906C11.079 49.3906 0 38.3116 0 24.6946C0 11.0766 11.079 -0.00140381 24.696 -0.00140381C38.313 -0.00140381 49.392 11.0766 49.392 24.6946C49.392 38.3116 38.313 49.3906 24.696 49.3906ZM24.696 1.98761C12.175 1.98761 1.98901 12.1736 1.98901 24.6946C1.98901 37.2156 12.175 47.4016 24.696 47.4016C37.217 47.4016 47.403 37.2156 47.403 24.6946C47.403 12.1736 37.217 1.98761 24.696 1.98761Z" fill="#E51937"/>
    <path d="M20.7375 21.3422C20.1925 20.2042 20.1915 20.2042 21.0325 19.4112C24.5115 16.1302 27.9905 12.8502 31.4705 9.57117C31.5955 9.45317 31.7265 9.34317 31.9225 9.17017C33.9425 16.6682 35.9465 24.1032 37.9715 31.6172C37.6635 31.5502 37.4065 31.5062 37.1545 31.4392C32.5245 30.2052 27.8945 28.9662 23.2625 27.7392C22.9095 27.6462 22.7195 27.4922 22.6055 27.1262C22.0855 25.4532 21.5285 23.7902 20.9735 22.0882C24.1605 20.5172 27.3115 18.9652 30.5015 17.3932C30.2955 16.6612 30.0975 15.9612 29.8735 15.1662C26.8045 17.2402 23.7875 19.2802 20.7375 21.3422Z" fill="#E51937"/>
    <path d="M19.3069 20.6596C20.0149 22.9986 20.7109 25.3007 21.4259 27.6657C20.1269 28.0607 18.8779 28.4416 17.6279 28.8226C16.6479 29.1206 15.6719 29.4307 14.6879 29.7117C13.6329 30.0127 12.7479 29.5377 12.4119 28.4927C12.0509 27.3717 11.7049 26.2446 11.3669 25.1156C11.0179 23.9506 11.4549 23.0797 12.6199 22.7117C14.3689 22.1597 16.1309 21.6486 17.8859 21.1166C18.3429 20.9776 18.7959 20.8246 19.3069 20.6596Z" fill="#E51937"/>
    <path d="M17.7179 29.5662C18.5049 29.6052 19.2719 30.0492 19.6369 30.9852C20.1979 32.4222 20.7199 33.8771 21.1969 35.3441C21.5999 36.5841 20.9049 37.8862 19.7079 38.2862C18.4869 38.6942 17.1879 38.1001 16.7269 36.8741C16.2039 35.4831 15.6959 34.0851 15.2349 32.6731C14.7159 31.0821 15.8569 29.5502 17.7179 29.5662Z" fill="#E51937"/>
    <path d="M35.7501 17.4218C35.7431 16.5858 36.1401 16.1048 36.7251 16.0118C37.3301 15.9148 37.8931 16.2948 38.0541 16.9548C38.3891 18.3228 38.7021 19.6958 39.0231 21.0668C39.0671 21.2538 39.1221 21.4418 39.1421 21.6318C39.2021 22.2228 38.8681 22.7828 38.3861 22.9278C37.8011 23.1028 37.1331 22.8698 36.9581 22.2528C36.4871 20.5848 36.1111 18.8898 35.7501 17.4218Z" fill="#E51937"/>
    <path d="M71.3594 23.624C71.3593 26.2459 70.1765 28.2804 67.8633 29.3096L67.6367 29.4062L67.2148 29.5771L67.4775 29.9473L71.1914 35.1914H69.71L66.1748 30.1719L66.0439 29.9854L65.8193 30.0244L65.3467 30.0957C64.8662 30.1567 64.3657 30.1875 63.8789 30.1875H61.2676V35.1914H59.9844V17.0049H63.8789C66.399 17.0049 68.2619 17.7089 69.4922 18.8643C70.7204 20.0178 71.3594 21.6605 71.3594 23.624ZM69.2744 23.624C69.2744 25.0506 68.8952 26.2373 68.0537 27.0693C67.2118 27.9017 65.8501 28.4355 63.7676 28.4355H61.9863V18.7842H63.7676C65.8342 18.7842 67.1968 19.3242 68.043 20.1641C68.889 21.004 69.2744 22.1989 69.2744 23.624ZM69.9932 23.624C69.9932 22.0743 69.5723 20.6692 68.5488 19.6533C67.5253 18.6376 65.9538 18.0654 63.7676 18.0654H61.2676V29.1543H63.7676C65.9661 29.1543 67.5387 28.5894 68.5596 27.5801C69.5804 26.5705 69.9931 25.172 69.9932 23.624ZM72.0781 23.624C72.0781 21.5005 71.3831 19.6536 69.9844 18.3398C68.5876 17.0282 66.5306 16.2861 63.8789 16.2861H59.2656V35.9102H61.9863V30.9062H63.8789C64.4874 30.9062 65.1175 30.8584 65.7139 30.7676L69.3369 35.9102H72.5811L68.3184 29.8916C70.8104 28.7121 72.0781 26.438 72.0781 23.624Z" fill="#3F4D5A"/>
    <path d="M71.886 35.5508H69.523L65.881 30.3788C65.241 30.4908 64.547 30.5468 63.879 30.5468H61.627V35.5508H59.625V16.6458H63.879C69.051 16.6458 71.719 19.5368 71.719 23.6238C71.719 26.4598 70.385 28.6838 67.771 29.7398L71.886 35.5508ZM63.768 28.7948C68.049 28.7948 69.634 26.5988 69.634 23.6238C69.634 20.6488 68.021 18.4248 63.768 18.4248H61.627V28.7948H63.768Z" fill="#3F4D5A"/>
    <path d="M76.1953 16.6458H87.7053V18.4248H78.1963V27.2938H86.6763V29.0458H78.1963V33.7718H88.0943V35.5508H76.1953V16.6458Z" fill="#3F4D5A"/>
    <path d="M92.3125 16.6458H96.8995C103.212 16.6458 107.132 20.3708 107.132 26.0988C107.132 31.8258 103.239 35.5508 96.8995 35.5508H92.3125V16.6458ZM96.7615 33.7448C102.35 33.7448 105.017 30.6028 105.017 26.0988C105.017 21.5948 102.35 18.4528 96.7615 18.4528H94.3145V33.7448H96.7615Z" fill="#3F4D5A"/>
    <path d="M111.211 16.6458H122.582V18.4248H113.213V27.2938H121.72V29.1288H113.213V35.5508H111.211V16.6458Z" fill="#3F4D5A"/>
    <path d="M126.664 16.6458H128.666V33.7718H137.591V35.5508H126.664V16.6458Z" fill="#3F4D5A"/>
    <path d="M147.598 16.4508H147.932L155.939 35.5508H153.826L152.547 32.3818H142.983L141.732 35.5508H139.758L147.598 16.4508ZM151.824 30.6588L148.488 22.2618C148.127 21.3728 147.766 20.0098 147.766 20.0098C147.766 20.0098 147.376 21.3728 147.015 22.2618L143.678 30.6588H151.824Z" fill="#3F4D5A"/>
    <path d="M157.219 26.0984C157.219 20.3994 161.445 16.4234 166.95 16.4234C169.674 16.4234 171.982 17.2014 173.539 18.8694L172.176 20.2324C170.953 18.9524 169.285 18.2304 166.95 18.2304C162.502 18.2304 159.304 21.5944 159.304 26.0984C159.304 30.6024 162.529 33.9664 167.116 33.9664C169.702 33.9664 171.537 33.1874 172.705 32.2434V28.3504H167.089V26.5714H174.595V33.1604C173.205 34.5224 170.675 35.7734 167.116 35.7734C161.473 35.7734 157.219 31.7974 157.219 26.0984Z" fill="#3F4D5A"/>
    <path d="M88.4541 35.9102V33.4121H78.5557V29.4053H87.0361V26.9346H78.5557V18.7842H88.0645V16.2861H75.8359V35.9102H88.4541ZM76.5547 17.0049H87.3457V18.0654H77.8369V27.6533H86.3164V28.6865H77.8369V34.1309H87.7344V35.1914H76.5547V17.0049Z" fill="#3F4D5A"/>
    <path d="M106.772 26.0986C106.772 28.8775 105.83 31.1405 104.147 32.71C102.463 34.2817 99.9991 35.1914 96.8994 35.1914H92.6719V17.0049H96.8994C99.9854 17.0049 102.449 17.9149 104.138 19.4873C105.824 21.0573 106.772 23.3201 106.772 26.0986ZM104.658 26.0986C104.658 28.2803 104.013 30.0907 102.732 31.3555C101.452 32.62 99.4889 33.3857 96.7617 33.3857H94.6738V18.8125H96.7617C99.489 18.8125 101.452 19.5781 102.732 20.8428C104.013 22.1075 104.658 23.9171 104.658 26.0986ZM105.377 26.0986C105.377 23.7764 104.688 21.7633 103.237 20.3311C101.787 18.8989 99.6221 18.0938 96.7617 18.0938H93.9551V34.1045H96.7617C99.6222 34.1045 101.787 33.2985 103.237 31.8662C104.688 30.434 105.377 28.4209 105.377 26.0986ZM107.491 26.0986C107.491 23.1494 106.48 20.6854 104.628 18.9609C102.779 17.2388 100.125 16.2861 96.8994 16.2861H91.9531V35.9102H96.8994C100.139 35.9102 102.791 34.9577 104.638 33.2354C106.487 31.5106 107.491 29.0468 107.491 26.0986Z" fill="#3F4D5A"/>
    <path d="M137.95 35.9102V33.4121H129.025V16.2861H126.305V35.9102H137.95ZM127.023 17.0049H128.307V34.1309H137.231V35.1914H127.023V17.0049Z" fill="#3F4D5A"/>
    <path d="M141.981 35.9102L143.232 32.7412H152.31L153.588 35.9102H156.484L148.176 16.0908H147.361L147.271 16.3145L139.227 35.9102H141.981ZM147.771 16.9863L155.403 35.1914H154.073L152.794 32.0225H142.743L141.492 35.1914H140.3L147.771 16.9863ZM152.358 31.0186L148.827 22.1289L148.826 22.127L148.695 21.7861C148.566 21.4298 148.442 21.0362 148.341 20.6992C148.274 20.476 148.218 20.2796 148.179 20.1396C148.159 20.0699 148.144 20.0138 148.134 19.9756C148.129 19.9568 148.125 19.9424 148.122 19.9326C148.121 19.9277 148.12 19.9233 148.119 19.9209L148.118 19.9189L147.784 18.6562L147.425 19.9111L147.424 19.9141C147.423 19.9165 147.422 19.9208 147.421 19.9258C147.418 19.9357 147.414 19.9506 147.408 19.9697C147.397 20.0081 147.38 20.0639 147.359 20.1338C147.318 20.274 147.258 20.4706 147.188 20.6943C147.081 21.0316 146.951 21.4262 146.818 21.7842L146.687 22.127L146.686 22.1289L143.153 31.0186H152.358ZM147.353 22.3975L147.492 22.0352C147.587 21.7784 147.677 21.5059 147.761 21.251C147.88 21.6301 148.017 22.0477 148.159 22.3975L151.298 30.2988H144.213L147.353 22.3975Z" fill="#3F4D5A"/>
    <path d="M158.944 26.0986C158.944 30.7951 162.325 34.3262 167.116 34.3262C169.776 34.3261 171.693 33.5236 172.931 32.5234L172.704 32.2432H172.705L172.931 32.5234L173.064 32.415V27.9912H167.448V26.9307H174.235V33.0039C172.897 34.2549 170.499 35.414 167.116 35.4141C161.66 35.4141 157.578 31.5869 157.578 26.0986C157.578 20.6057 161.636 16.7832 166.95 16.7832C169.466 16.7833 171.567 17.4639 173.03 18.8691L172.174 19.7266C170.901 18.5293 169.21 17.8712 166.95 17.8711C162.292 17.8711 158.944 21.4081 158.944 26.0986ZM159.663 26.0986C159.663 21.7812 162.713 18.5898 166.95 18.5898C169.202 18.5899 170.771 19.2817 171.916 20.4805L172.17 20.7471L172.43 20.4863L173.793 19.124L173.538 18.8701H173.539L173.793 19.124L174.038 18.8779L173.802 18.624L173.484 18.3047C171.853 16.7645 169.565 16.0636 166.95 16.0635C161.254 16.0635 156.859 20.1936 156.859 26.0986C156.859 32.0082 161.287 36.1328 167.116 36.1328C170.759 36.1327 173.383 34.8516 174.847 33.417L174.954 33.3115V26.2119H166.729V28.71H172.346V32.0674C171.241 32.9092 169.529 33.6073 167.116 33.6074C162.734 33.6074 159.663 30.4099 159.663 26.0986Z" fill="#3F4D5A"/>
    <path d="M113.572 35.9102V29.4883H122.079V26.9346H113.572V18.7842H122.941V16.2861H110.852V35.9102H113.572ZM111.57 17.0049H122.223V18.0654H112.854V27.6533H121.36V28.7695H112.854V35.1914H111.57V17.0049Z" fill="#3F4D5A"/>
    <path d="M176.008 18.7466C176.008 17.2026 177.219 16.0906 178.689 16.0906C180.184 16.0906 181.419 17.2026 181.419 18.7466C181.419 20.2666 180.184 21.3906 178.689 21.3906C177.219 21.3906 176.008 20.2666 176.008 18.7466ZM180.925 18.7466C180.925 17.3996 179.974 16.5226 178.689 16.5226C177.428 16.5226 176.515 17.3996 176.515 18.7466C176.515 20.0806 177.428 20.9586 178.689 20.9586C179.974 20.9586 180.925 20.0806 180.925 18.7466ZM179.9 20.1916H179.306L178.825 19.4636C178.775 19.4756 178.714 19.4756 178.652 19.4756H178.281V20.1916H177.738V17.2636H178.639C179.492 17.2636 179.9 17.7826 179.9 18.3756C179.9 18.7716 179.702 19.1416 179.319 19.3276L179.9 20.1916ZM178.639 19.0436C179.146 19.0436 179.356 18.7966 179.356 18.3886C179.356 17.9926 179.146 17.7216 178.639 17.7216H178.281V19.0436H178.639Z" fill="#3F4D5A"/>
</svg>