<svg width="132" height="51" viewBox="0 0 132 51" fill="none" xmlns="http://www.w3.org/2000/svg">
    <path d="M95.8428 21.7666L91.6016 26.8613L91.5967 26.8662L91.4385 27.0391C91.4177 27.0606 91.3958 27.0808 91.375 27.1016C92.6025 27.2995 93.69 27.8446 94.5186 28.6855C95.5503 29.733 96.1601 31.2162 96.1602 32.9922C96.1601 34.8461 95.4892 36.4333 94.3242 37.5557C93.1604 38.6769 91.5261 39.3124 89.6377 39.3125C86.5258 39.3125 84.2237 37.7612 83.1211 35.3418L82.9648 35L85.4365 33.8447L85.5967 34.1885C85.99 35.0295 86.5171 35.6608 87.1748 36.084C87.8322 36.5068 88.6454 36.7373 89.6377 36.7373C90.664 36.7372 91.5671 36.3987 92.2109 35.7744C92.8521 35.1526 93.2675 34.2172 93.2676 32.9639C93.2676 31.7395 92.9151 30.8474 92.3057 30.2598C91.6938 29.67 90.7685 29.335 89.5215 29.335C88.5468 29.335 87.8835 29.549 87.3555 29.8135L87.0625 29.96L86.5078 29.166L86.6924 28.9443L90.9893 23.7539C91.0538 23.6754 91.1222 23.5994 91.1885 23.5244C91.0569 23.5317 90.9219 23.5361 90.791 23.5361H84.5869V21.0488H95.8428V21.7666ZM104.403 24.5762C104.731 24.4963 105.078 24.4512 105.442 24.4512C108.791 24.4512 111.416 26.9531 111.416 30.4541C111.416 33.937 108.664 36.5723 105.038 36.5723C101.537 36.572 98.6895 34.0908 98.6895 30.4834C98.6895 28.6961 99.4619 27.1468 100.57 25.542L105.532 18.1592L105.645 17.9912H108.836L104.403 24.5762ZM119.979 20.8184C121.962 20.8185 123.661 21.6149 124.859 23.0127C126.054 24.4062 126.732 26.3737 126.732 28.6953C126.732 30.9733 126.069 32.9399 124.883 34.3438C123.692 35.7526 121.993 36.5722 119.979 36.5723C117.993 36.5723 116.307 35.7513 115.125 34.3428C113.947 32.9393 113.284 30.9733 113.284 28.6953C113.284 26.3737 113.962 24.4069 115.148 23.0137C116.339 21.6162 118.024 20.8184 119.979 20.8184ZM61.6387 15.8838L70.4551 26.9053L79.2158 15.8848L79.3301 15.7422H80.209V36.3418H77.4316V23.0137C77.4316 22.7557 77.4391 22.4615 77.4492 22.1729C77.2446 22.4743 77.0201 22.7888 76.8057 23.0518L70.8691 30.5459L70.7549 30.6895H70.041L69.9268 30.5439L64.0781 23.0518C63.8637 22.7887 63.6377 22.4729 63.4287 22.1709C63.4421 22.4598 63.4531 22.7547 63.4531 23.0137V36.3418H60.6758V15.7422H61.5244L61.6387 15.8838ZM105.067 26.8535C102.843 26.8537 101.467 28.4822 101.467 30.4541C101.467 31.5098 101.813 32.399 102.413 33.0215C103.011 33.6419 103.89 34.0263 105.01 34.0264C106.131 34.0263 107.033 33.6414 107.654 33.0176C108.276 32.3929 108.64 31.5039 108.64 30.4541C108.64 29.3504 108.298 28.4564 107.701 27.8408C107.106 27.2271 106.222 26.8535 105.067 26.8535ZM119.979 23.3936C118.796 23.3936 117.857 23.8673 117.203 24.7412C116.54 25.6279 116.147 26.9587 116.147 28.6953C116.147 30.402 116.539 31.7345 117.204 32.6299C117.86 33.5129 118.8 33.998 119.979 33.998C121.174 33.9979 122.121 33.5114 122.779 32.6289C123.447 31.7339 123.84 30.402 123.84 28.6953C123.84 26.9584 123.447 25.6276 122.78 24.7412C122.123 23.868 121.178 23.3937 119.979 23.3936ZM129.021 17.4941C130.527 17.4942 131.773 18.6149 131.773 20.1719C131.773 21.7037 130.527 22.8378 129.021 22.8379C127.539 22.8379 126.317 21.7038 126.317 20.1719C126.317 18.6149 127.539 17.4941 129.021 17.4941ZM129.021 17.9297C127.75 17.9297 126.828 18.8139 126.828 20.1719C126.828 21.5168 127.75 22.4014 129.021 22.4014C130.316 22.4013 131.275 21.5167 131.275 20.1719C131.275 18.8139 130.316 17.9297 129.021 17.9297ZM128.971 18.6768C129.83 18.6769 130.241 19.1999 130.241 19.7979C130.241 20.1968 130.041 20.5709 129.655 20.7568L130.241 21.6289H129.644L129.157 20.8936C129.107 20.9065 129.045 20.9062 128.983 20.9062H128.609V21.6289H128.062V18.6768H128.971ZM128.609 20.4707H128.971C129.481 20.4706 129.693 20.2215 129.693 19.8105C129.693 19.4117 129.481 19.1378 128.971 19.1377H128.609V20.4707Z" fill="#595B61"/>
    <path d="M25.4443 0C39.4959 0.000263908 50.8877 11.3917 50.8877 25.4434C50.8876 39.4949 39.4959 50.8865 25.4443 50.8867C11.3926 50.8867 9.58682e-05 39.4951 0 25.4434C0 11.3916 11.3925 2.98968e-05 25.4443 0ZM25.4443 2.04883C12.5242 2.04886 2.0498 12.5232 2.0498 25.4434C2.0499 38.3634 12.5242 48.8379 25.4443 48.8379C38.3642 48.8376 48.8388 38.3633 48.8389 25.4434C48.8389 12.5233 38.3643 2.04909 25.4443 2.04883ZM34.3193 21.125L37.3818 27.2881L34.5176 25.9658C34.4516 35.9096 31.6529 43.9117 28.2061 43.9121H25.3691C25.9069 43.9121 26.4336 43.7858 26.9434 43.5439C30.4554 41.8809 33.1285 34.7519 33.2275 26.1299L30.7031 27.585L33.0361 21.542L33.6885 19.8525L34.3193 21.125ZM22.4043 18.4033C22.0753 20.6152 21.8945 23.0524 21.8945 25.6152C21.8945 26.765 21.933 27.8887 22.0029 28.9805C23.0937 29.0504 24.2184 29.0889 25.3682 29.0889C27.9262 29.0889 30.3691 28.9071 32.5811 28.5781C32.4711 30.093 32.2835 31.5529 32.0205 32.9248C31.0325 33.0948 30.0005 33.2322 28.9355 33.3252C28.9195 33.3252 28.9026 33.3251 28.8916 33.3311C28.3266 33.3751 27.7556 33.4124 27.1797 33.4404C26.5817 33.4674 25.9772 33.4785 25.3682 33.4785C24.7593 33.4785 24.1554 33.4674 23.5625 33.4404C23.2005 33.4234 22.8442 33.401 22.4902 33.377C23.2352 37.9759 24.6215 41.5303 26.3125 43.0723C25.9176 43.2212 25.5164 43.2969 25.1055 43.2969C22.0116 43.2968 19.3462 38.9951 18.1602 32.8213C11.9904 31.6333 7.6856 28.9749 7.68555 25.8779C7.68555 25.466 7.76222 25.06 7.91016 24.665C9.44615 26.36 13.0025 27.7482 17.6064 28.4932C17.5814 28.1392 17.56 27.7838 17.543 27.4258C17.516 26.8279 17.5049 26.2241 17.5049 25.6152C17.5049 25.0052 17.516 24.4016 17.543 23.8086C17.57 23.2267 17.6084 22.6556 17.6523 22.0967C17.6573 22.0797 17.6572 22.0637 17.6572 22.0527C17.7072 21.4768 17.7727 20.9104 17.8447 20.3564C17.9107 19.8846 17.9816 19.4187 18.0586 18.9629C19.4305 18.6999 20.8904 18.5133 22.4043 18.4033ZM42.8271 24.6699C42.9751 25.0659 43.0517 25.466 43.0518 25.8779C43.0518 28.6109 39.6867 31.0147 34.6377 32.3477C34.8137 31.0198 34.9399 29.6095 35.0059 28.1387C38.6888 27.3537 41.4982 26.1249 42.8271 24.6699ZM30.3242 16.6357L30.4727 16.7188L30.4941 16.7295L32.0977 17.5635L30.7637 18.0518L30.6709 18.084L30.3467 18.2051L24.293 20.4004L25.5059 18.4033L25.9014 17.7559C25.7254 17.7509 25.5491 17.75 25.3682 17.75C16.5164 17.75 9.14051 20.4552 7.44434 24.0391C7.20335 24.549 7.07619 25.0763 7.07617 25.6143V22.7773C7.07622 19.2924 15.2653 16.4659 25.3682 16.4658C25.5602 16.4658 25.7475 16.4657 25.9395 16.4717L25.9121 16.4053L24.748 13.7324L30.3242 16.6357ZM40.6865 19.3252C42.5683 20.3182 43.666 21.5044 43.666 22.7773V25.6143C43.666 25.0773 43.5399 24.5501 43.2979 24.0391C42.7388 22.8541 41.5592 21.7667 39.9072 20.8447L40.2852 23.6885L35.7256 19.3691L35.5879 19.2324L35.3789 19.0342L34.2705 17.9863H42.5576L40.6865 19.3252ZM33.249 16.9922C33.6219 16.9923 33.9248 17.2941 33.9248 17.667C33.9247 18.0398 33.6219 18.3426 33.249 18.3428C32.8761 18.3428 32.5733 18.0399 32.5732 17.667C32.5732 17.294 32.876 16.9922 33.249 16.9922ZM25.1055 7.93164C25.5174 7.93168 25.9235 8.00829 26.3184 8.15625C24.8644 9.47325 23.6288 12.2896 22.8438 15.9775C21.3729 16.0425 19.9628 16.1695 18.6289 16.3555C19.9679 11.3015 22.3675 7.93164 25.1055 7.93164ZM28.2061 7.32227C29.364 7.32227 30.445 8.22293 31.3779 9.80273L31.5098 9.66016L32.8428 7.71191L32.8604 13.2725L32.8652 15.8066L31.8945 14.7705L31.5918 14.4463L27.1963 9.7373L29.5117 10.0723C28.7378 8.9474 27.8712 8.12946 26.9443 7.69043C26.4333 7.44943 25.9062 7.32227 25.3682 7.32227H28.2061Z" fill="#279AB5"/>
</svg>